<svg width="120" height="120" viewBox="0 0 120 120" fill="none" xmlns="http://www.w3.org/2000/svg">
<rect width="120" height="120" rx="24" fill="#6900FF"/>
<path d="M24.3441 42.1836C25.9624 42 27.9072 45.0892 29 47.5878C28.2086 48.401 27.4261 49.226 26.6525 50.0627C26.3482 49.7169 26.0446 49.3702 25.7419 49.0225C25.7744 52.8916 25.5717 54.8997 25.1337 58.7634C23.3952 60.3731 17.0162 60.3731 14.9469 58.9858C14.4944 55.0031 14.288 52.8742 14.3279 48.8826C13.9996 49.2639 13.6729 49.6428 13.3487 50.0181C12.5699 49.1477 11.787 48.2824 11 47.4223C11.6486 45.1806 13.6712 42 15.6784 42C16.3317 42.8194 16.9903 43.6329 17.6542 44.4403C19.0388 45.8206 21.1392 45.8206 22.3614 44.5115C23.0469 43.7086 23.7118 42.9287 24.3441 42.1836Z" fill="white"/>
<path d="M69 57.894C69 58.038 68.934 58.23 68.802 58.47C68.67 58.71 68.469 58.941 68.199 59.163C67.929 59.385 67.596 59.58 67.2 59.748C66.804 59.916 66.348 60 65.832 60H54.186C53.658 60 53.196 59.916 52.8 59.748C52.404 59.58 52.071 59.385 51.801 59.163C51.531 58.941 51.33 58.71 51.198 58.47C51.066 58.23 51 58.038 51 57.894L52.584 49.416C52.584 49.116 52.689 48.864 52.899 48.66C53.109 48.456 53.358 48.354 53.646 48.354C53.73 48.378 53.826 48.408 53.934 48.444C54.03 48.468 54.144 48.498 54.276 48.534L54.708 48.66V47.256C54.708 46.536 54.846 45.855 55.122 45.213C55.398 44.571 55.776 44.013 56.256 43.539C56.736 43.065 57.297 42.69 57.939 42.414C58.581 42.138 59.268 42 60 42C60.732 42 61.419 42.138 62.061 42.414C62.703 42.69 63.264 43.065 63.744 43.539C64.224 44.013 64.602 44.571 64.878 45.213C65.154 45.855 65.292 46.536 65.292 47.256V48.66L65.724 48.534C65.856 48.498 65.97 48.468 66.066 48.444C66.174 48.408 66.27 48.378 66.354 48.354C66.654 48.354 66.906 48.456 67.11 48.66C67.314 48.864 67.416 49.116 67.416 49.416L69 57.894ZM55.23 52.062C55.53 52.062 55.782 51.96 55.986 51.756C56.19 51.552 56.292 51.3 56.292 51C56.292 50.796 56.244 50.616 56.148 50.46C56.052 50.304 55.926 50.178 55.77 50.082V51H54.708V50.082C54.36 50.274 54.186 50.58 54.186 51C54.186 51.3 54.288 51.552 54.492 51.756C54.696 51.96 54.942 52.062 55.23 52.062ZM55.77 48.912C56.358 49.044 57.018 49.161 57.75 49.263C58.482 49.365 59.232 49.416 60 49.416C60.768 49.416 61.518 49.365 62.25 49.263C62.982 49.161 63.648 49.044 64.248 48.912V47.418C64.248 46.818 64.137 46.254 63.915 45.726C63.693 45.198 63.39 44.736 63.006 44.34C62.622 43.944 62.172 43.632 61.656 43.404C61.14 43.176 60.588 43.062 60 43.062C59.412 43.062 58.863 43.176 58.353 43.404C57.843 43.632 57.396 43.944 57.012 44.34C56.628 44.736 56.325 45.198 56.103 45.726C55.881 46.254 55.77 46.818 55.77 47.418V48.912ZM64.77 52.062C65.07 52.062 65.322 51.96 65.526 51.756C65.73 51.552 65.832 51.3 65.832 51C65.832 50.796 65.784 50.616 65.688 50.46C65.592 50.304 65.46 50.178 65.292 50.082V51H64.248V50.082C64.08 50.178 63.948 50.304 63.852 50.46C63.756 50.616 63.708 50.796 63.708 51C63.708 51.3 63.813 51.552 64.023 51.756C64.233 51.96 64.482 52.062 64.77 52.062Z" fill="white"/>
<path d="M28.9297 64.3398L29.3164 64.3281C29.3945 64.3672 29.4531 64.4648 29.4922 64.6211L29.1406 65.3125V65.3008L28.3789 66.7656C27.2305 68.8906 26.4883 70.3086 26.1523 71.0195L25.7539 71.7812C25.3242 72.6094 24.5938 74.0703 23.5625 76.1641C23.5469 76.4297 23.5391 76.8281 23.5391 77.3594V82.1992C23.5 82.3242 23.4219 82.3867 23.3047 82.3867L16.5898 82.4336C16.418 82.2148 16.332 81.9648 16.332 81.6836L16.3555 80.2188V79.8789L16.3672 79.5273L16.3789 78.6719C16.3789 77.0391 15.9609 75.2891 15.125 73.4219C14.9453 73.0312 14.6836 72.4805 14.3398 71.7695L12.5938 68.2773C12.5469 68.1914 12.4219 67.9531 12.2188 67.5625C12.0156 67.1719 11.793 66.75 11.5508 66.2969V66.3086C10.9258 65.3555 10.6133 64.7227 10.6133 64.4102C10.6133 64.3711 10.7383 64.3516 10.9883 64.3516H14C15.6641 64.3516 16.918 64.3633 17.7617 64.3867C18.0117 64.4336 18.6641 66.3125 19.7188 70.0234L20.2461 71.8867C21.043 69.7617 21.8828 67.2695 22.7656 64.4102C22.7734 64.3477 23.3516 64.3164 24.5 64.3164H26C26.3594 64.3164 26.6602 64.3242 26.9023 64.3398H28.9297ZM34.6264 80.7461C34.6264 79.1602 34.6694 78.0586 34.7553 77.4414C34.7553 74.043 34.8022 70.6172 34.8959 67.1641C34.8725 66.6719 34.8608 66.1758 34.8608 65.6758V65.2891C34.8295 65.0469 34.8139 64.832 34.8139 64.6445C34.8139 64.457 34.8334 64.3359 34.8725 64.2812C36.5444 64.3828 38.0092 64.4336 39.267 64.4336C40.5248 64.4336 41.3881 64.4102 41.8569 64.3633C41.8725 64.3867 41.8842 64.4531 41.892 64.5625H41.81V68.8047L41.892 78.3438C41.892 78.4141 41.9037 78.4727 41.9272 78.5195V78.543C41.9506 78.5898 41.9623 78.6406 41.9623 78.6953L42.0561 82.1055C42.017 82.1914 41.9467 82.2578 41.8452 82.3047H41.4467L34.8842 82.4102C34.8061 82.3711 34.7045 82.3125 34.5795 82.2344L34.5912 82.0352L34.6264 80.7461ZM48.5731 77.1602L54.7723 77.0547C54.9286 77.0547 55.0575 77.1875 55.1591 77.4531C55.2684 77.7188 55.3739 77.9297 55.4755 78.0859C55.7177 78.4609 56.1161 78.6484 56.6708 78.6484C57.2333 78.6484 57.6864 78.5195 58.0302 78.2617C58.3739 77.9961 58.5458 77.6562 58.5458 77.2422C58.5458 76.8281 58.4403 76.5469 58.2294 76.3984C58.0184 76.2422 57.788 76.0938 57.538 75.9531C57.288 75.8047 56.9169 75.6914 56.4247 75.6133C55.9403 75.5352 55.6747 75.4883 55.6278 75.4727H55.6512L54.9833 75.2969C54.5536 75.2188 54.1942 75.1328 53.9052 75.0391C52.038 74.5391 50.6864 73.9102 49.8505 73.1523C49.0223 72.3945 48.6083 71.375 48.6083 70.0938C48.6083 69.1641 48.7802 68.3281 49.1239 67.5859C49.4677 66.8438 49.9169 66.2383 50.4716 65.7695C52.0731 64.418 54.2841 63.7422 57.1044 63.7422C59.3466 63.7422 61.1083 64.1484 62.3895 64.9609H62.3778C63.1981 65.5547 63.7606 66.1406 64.0653 66.7188C64.37 67.2891 64.5614 67.9961 64.6395 68.8398L64.3348 69.1445C62.2802 69.2227 60.4598 69.2617 58.8739 69.2617C58.3973 69.2617 58.1122 69.1211 58.0184 68.8398C57.9794 68.7227 57.9364 68.6055 57.8895 68.4883C57.7802 68.207 57.4286 68.0664 56.8348 68.0664H56.788C56.327 68.0664 55.9325 68.1758 55.6044 68.3945C55.2762 68.6055 55.1083 68.8125 55.1005 69.0156C55.1005 69.2188 55.1434 69.3867 55.2294 69.5195C55.3231 69.6523 55.4208 69.7578 55.5223 69.8359C55.6239 69.9141 55.7802 69.9961 55.9911 70.082C56.202 70.1602 56.3583 70.2148 56.4598 70.2461C56.5692 70.2695 56.7372 70.3125 56.9637 70.375L57.3739 70.4805C57.538 70.5273 58.0145 70.6445 58.8036 70.832C59.6005 71.0195 60.2645 71.1992 60.7958 71.3711V71.3594C62.4598 71.9219 63.5927 72.625 64.1942 73.4688C64.8036 74.3047 65.1083 75.2812 65.1083 76.3984C65.1083 79.375 63.3309 81.3047 59.7762 82.1875C58.745 82.4453 57.6434 82.6289 56.4716 82.7383C55.0341 82.7383 53.6122 82.5273 52.2059 82.1055C50.7997 81.6836 49.8583 80.9961 49.3817 80.043C49.0614 79.582 48.8466 79.1602 48.7372 78.7773C48.6278 78.3867 48.538 77.8438 48.4677 77.1484C48.4911 77.1562 48.5262 77.1602 48.5731 77.1602ZM88.1253 77.9922L88.1136 79.3867C88.1136 79.9727 88.1214 80.8984 88.137 82.1641C88.0277 82.3125 87.1605 82.3867 85.5355 82.3867C83.9105 82.3867 82.4573 82.3633 81.1761 82.3164C81.1605 82.3008 81.0863 82.2031 80.9534 82.0234V80.1484L80.9769 76.5508C80.9769 76.1992 80.9378 75.9922 80.8597 75.9297C80.7816 75.8672 80.5433 75.8359 80.1448 75.8359H79.9808C79.2386 75.8359 78.6527 75.8711 78.223 75.9414V77.582L78.1995 82.1172C78.0823 82.2422 77.1019 82.3047 75.2581 82.3047H74.6956C73.1019 82.3047 71.9417 82.2812 71.2152 82.2344C71.0667 82.1875 70.9925 81.6328 70.9925 80.5703L71.0628 77.9805L71.18 67.4805V66.918C71.1878 66.8008 71.1917 66.3945 71.1917 65.6992C71.1917 64.9961 71.2347 64.5508 71.3206 64.3633H71.3792C71.8948 64.3789 72.2738 64.3867 72.5159 64.3867H73.8284L75.2464 64.3633H75.6917C77.0198 64.3633 77.7933 64.5156 78.012 64.8203C78.1214 64.9766 78.1761 65.2148 78.1761 65.5352L78.1409 67V67.5508L78.0706 69.8711C78.0706 70.043 78.0823 70.2695 78.1058 70.5508H78.8323L79.1253 70.5625H80.0628C80.4066 70.5625 80.7581 70.5352 81.1175 70.4805V67.7031L81.1292 66.8359V66.0273L81.1175 65.8398V65.2422C81.1175 64.7812 81.137 64.5 81.1761 64.3984C81.223 64.2969 81.3363 64.2461 81.5159 64.2461L81.7503 64.2578H82.512L85.0433 64.1875C87.0589 64.1875 88.0667 64.3477 88.0667 64.668V65.5L88.0784 65.7812L88.0667 66.3906V68.207L88.1253 75.6836C88.1253 75.8086 88.1175 75.9727 88.1019 76.1758V76.7383C88.1019 76.9883 88.1097 77.3164 88.1253 77.7227V77.9922ZM95.0759 67.4922L95.0173 64.4102C95.0252 64.4102 95.0525 64.4219 95.0994 64.4453C101.037 64.3438 105.51 64.2891 108.517 64.2812C108.549 64.2969 108.572 64.3203 108.588 64.3516V67.6562C108.588 67.9766 108.58 68.2383 108.564 68.4414C108.525 68.5664 108.295 68.6289 107.873 68.6289H107.791C105.9 68.6289 103.931 68.5977 101.885 68.5352C101.885 68.6055 101.873 68.7305 101.849 68.9102C101.834 69.0898 101.822 69.2188 101.814 69.2969L101.756 69.7422C101.717 70.0391 101.689 70.5547 101.674 71.2891L105.306 71.207C105.931 71.1914 106.385 71.1836 106.666 71.1836H106.853C107.33 71.1836 107.642 71.1992 107.791 71.2305C107.939 71.2539 108.013 71.332 108.013 71.4648L108.002 71.5586V71.8398L108.06 74.8516L108.049 74.8633V74.8516C105.674 74.9688 103.775 75.0273 102.353 75.0273H101.802V77.8633L108.166 77.6641C108.517 77.6641 108.74 77.7148 108.834 77.8164C108.826 78.0195 108.822 78.3086 108.822 78.6836L108.904 81.8711C108.904 82.0664 108.818 82.1797 108.646 82.2109L104.756 82.1758C103.99 82.1758 102.467 82.2031 100.185 82.2578L98.2634 82.3047C96.9041 82.3516 95.8962 82.375 95.24 82.375L95.2048 82.3516H95.2166C95.1384 82.2734 95.0642 82.1992 94.9939 82.1289V81.7188L95.0642 69.1914L95.0759 67.4922Z" fill="white"/>
<g clip-path="url(#clip0_0_1)">
<path d="M46.4818 46.9818C46.142 45.8565 44.3218 42.2812 40.4495 42.2812C35.5389 42.2812 31.3846 47.2054 32.138 55.5H44.7957C44.8581 53.2025 44.0698 50.0086 42.7831 48.4313C43.7289 48.8783 43.8366 48.9235 44.7957 49.074" fill="white"/>
<path d="M42.8125 48.4688C44.0688 50.683 44.6544 53.0419 44.7812 55.5H32.9688C40.6708 55.8007 43.9999 53.4857 42.8125 48.4688Z" fill="white"/>
<path d="M45.3438 56.3438C45.3438 56.1199 45.2549 55.9053 45.0965 55.7472C45.0182 55.6688 44.9252 55.6066 44.8229 55.5642C44.7205 55.5218 44.6108 55.5 44.5 55.5H32.125C31.9011 55.5 31.6865 55.5889 31.5285 55.7472C31.4501 55.8255 31.3879 55.9185 31.3454 56.0209C31.303 56.1232 31.2812 56.2329 31.2813 56.3438V58.875C31.2813 59.0989 31.3701 59.3135 31.5285 59.4715C31.6068 59.5499 31.6998 59.6121 31.8021 59.6545C31.9045 59.697 32.0142 59.7188 32.125 59.7188H44.5C44.7239 59.7188 44.9385 59.6299 45.0965 59.4715C45.1749 59.3932 45.2371 59.3002 45.2795 59.1979C45.322 59.0955 45.3438 58.9858 45.3438 58.875V56.3438Z" fill="white"/>
<path d="M45.0313 55.7812C45.3117 59.0494 37.7129 59.8681 31.2812 59.7188H44.2188C44.3665 59.7188 44.5128 59.6897 44.6493 59.6331C44.7857 59.5766 44.9097 59.4937 45.0141 59.3891C45.1187 59.2847 45.2016 59.1607 45.2581 59.0243C45.3147 58.8878 45.3438 58.7415 45.3438 58.5938V56.625" fill="white"/>
<path d="M46.5596 51.2621C45.5617 51.1758 44.7812 50.3346 44.7812 49.3125C44.7812 48.226 45.6635 47.3437 46.75 47.3437C47.1165 47.342 47.4757 47.4463 47.7842 47.6441L47.5938 47.625C46.5073 47.625 45.625 48.5073 45.625 49.5938C45.6245 49.9287 45.7102 50.2581 45.8739 50.5503C46.0376 50.8425 46.2737 51.0876 46.5596 51.2621Z" fill="white"/>
<path d="M47.7842 47.6441C48.07 47.8186 48.3062 48.0638 48.4698 48.356C48.6335 48.6482 48.7192 48.9776 48.7188 49.3125C48.7188 50.399 47.8365 51.2812 46.75 51.2812L46.5596 51.2621C46.2737 51.0876 46.0376 50.8425 45.8739 50.5503C45.7102 50.2581 45.6245 49.9287 45.625 49.5938C45.625 48.5073 46.5073 47.625 47.5938 47.625L47.7842 47.6441Z" fill="white"/>
</g>
<g clip-path="url(#clip1_0_1)">
<path d="M100.428 42H93.5472C93.3976 42 93.2713 42.1406 93.2461 42.3349L91.0042 59.5295C90.9732 59.775 91.1169 60 91.3054 60H97.3451C97.4869 60 97.6112 59.8722 97.6423 59.6881L98.9361 52.373C98.9692 52.1915 99.0916 52.0611 99.2334 52.0611H100.764C100.906 52.0611 101.03 52.1889 101.061 52.373L102.355 59.6881C102.388 59.8696 102.511 60 102.652 60H108.694C108.885 60 109.028 59.775 108.995 59.5295L106.755 42.3349C106.73 42.1406 106.604 42 106.454 42H100.428Z" fill="white"/>
</g>
<path d="M83.421 43.5338L83.2899 42.7773C83.2149 42.3273 82.8399 42 82.4084 42H77.383C76.9519 42 76.5954 42.3273 76.5019 42.7773L76.3704 43.5338C76.3166 43.7996 76.212 44.0499 76.0633 44.2685C75.9147 44.487 75.7254 44.6688 75.5078 44.802V44.8636C75.5078 48.1364 77.477 50.7753 79.9147 50.7753C82.3524 50.7753 84.321 48.1162 84.321 44.8636V44.802C83.871 44.5162 83.5335 44.0864 83.421 43.5338Z" fill="white"/>
<path d="M87.0403 45.0682H85.2586C85.1836 48.6065 83.0645 51.5111 80.3642 51.8182L81.2458 53.2909C81.3208 53.4136 81.3208 53.5773 81.2458 53.7L80.1772 55.5C80.1472 55.5517 80.1056 55.5943 80.0565 55.6238C80.0073 55.6533 79.9521 55.6688 79.896 55.6688C79.8398 55.6688 79.7846 55.6533 79.7354 55.6238C79.6863 55.5943 79.6447 55.5517 79.6147 55.5L78.5456 53.7C78.5089 53.6393 78.4893 53.5682 78.4893 53.4955C78.4893 53.4227 78.5089 53.3516 78.5456 53.2909L79.4267 51.8182C76.7454 51.5111 74.6078 48.6071 74.5328 45.0682H72.7511C71.57 45.0682 70.726 46.3156 71.0825 47.5636L74.2327 58.5273C74.3422 58.9172 74.5633 59.2586 74.8636 59.5016C75.1638 59.7445 75.5275 59.8762 75.9014 59.8773H83.927C84.301 59.8763 84.6648 59.7447 84.9651 59.5017C85.2655 59.2588 85.4867 58.9173 85.5962 58.5273L88.7464 47.5636C89.084 46.3162 88.2214 45.0682 87.0398 45.0682H87.0403Z" fill="white"/>
<defs>
<clipPath id="clip0_0_1">
<rect width="18" height="18" fill="white" transform="translate(31 42)"/>
</clipPath>
<clipPath id="clip1_0_1">
<rect width="18" height="18" fill="white" transform="translate(91 42)"/>
</clipPath>
</defs>
</svg>
