<svg width="164" height="164" viewBox="0 0 164 164" fill="none" xmlns="http://www.w3.org/2000/svg">
<rect width="164" height="164" rx="17" fill="black"/>
<path d="M67.3477 75.9766C45.0755 112.715 32.8652 134.199 30.7168 140.43C30.7168 140.716 29.6426 141.146 27.4941 141.719C25.3457 142.363 23.985 142.686 23.4121 142.686C22.9108 142.686 22.4811 142.363 22.123 141.719C20.4759 138.711 19.2585 136.742 18.4707 135.811C17.6829 134.88 16.8952 134.199 16.1074 133.77C15.3913 133.34 15.0332 133.053 15.0332 132.91C15.0332 131.191 22.4453 118.014 37.2695 93.3789C52.0938 68.6719 63.946 50.0521 72.8262 37.5195C70.248 39.3099 67.8848 41.0645 65.7363 42.7832C63.6595 44.502 62.3704 45.3613 61.8691 45.3613C61.4395 45.3613 61.0814 45.0749 60.7949 44.502C60.5085 43.8574 60.2578 43.1055 60.043 42.2461C59.8281 41.3867 59.4701 40.599 58.9688 39.8828C58.4674 39.0951 58.2526 38.4505 58.3242 37.9492C58.3958 37.3763 58.6823 36.4453 59.1836 35.1562C59.6849 33.8672 62.3704 30.9668 67.2402 26.4551C72.1816 21.9434 77.4453 17.6823 83.0312 13.6719C88.6888 9.58984 92.4844 7.54883 94.418 7.54883C96.3516 7.54883 98.3926 8.69466 100.541 10.9863C102.689 13.2064 103.764 15.319 103.764 17.3242C103.692 18.1836 98.8223 26.1686 89.1543 41.2793C79.5579 56.3184 72.2891 67.8841 67.3477 75.9766ZM84.75 118.516L84.6426 120.234C84.6426 122.025 85.3229 123.564 86.6836 124.854C88.0443 126.143 89.2975 126.787 90.4434 126.787C99.0371 126.787 106.628 125.498 113.217 122.92C119.877 120.342 123.207 117.764 123.207 115.186C123.207 113.968 121.99 112.93 119.555 112.07C117.191 111.139 113.145 110.029 107.416 108.74C101.758 107.38 97.6406 106.341 95.0625 105.625C92.4844 104.837 90.4434 104.121 88.9395 103.477C87.4355 102.832 85.8958 101.937 84.3203 100.791C80.9544 98.4277 79.2715 94.9186 79.2715 90.2637C79.2715 85.5371 80.9902 80.8822 84.4277 76.2988C87.9368 71.6439 92.3053 67.6693 97.5332 64.375C102.761 61.0807 108.383 58.1803 114.398 55.6738C126.286 50.7324 136.277 48.2617 144.369 48.2617C152.318 48.2617 157.224 49.9805 159.086 53.418C159.659 54.6354 159.945 55.9961 159.945 57.5V58.252C159.945 62.0475 159.122 65.0195 157.475 67.168C155.899 69.3164 153.357 71.25 149.848 72.9688C146.41 74.6875 143.653 75.5469 141.576 75.5469C139.571 75.5469 138.282 75.4036 137.709 75.1172C137.208 74.8307 136.778 74.4727 136.42 74.043C136.062 73.5417 135.596 73.1836 135.023 72.9688C134.522 72.7539 134.271 72.2168 134.271 71.3574C134.271 70.498 134.63 69.6387 135.346 68.7793C136.062 67.8483 136.563 66.8815 136.85 65.8789C132.123 66.0938 127.182 67.2038 122.025 69.209C116.869 71.1426 112.429 73.3268 108.705 75.7617C105.053 78.1966 102.009 80.5241 99.5742 82.7441C97.1393 84.9642 95.9219 86.6113 95.9219 87.6855C95.9219 88.6882 97.569 89.5117 100.863 90.1562C115.688 93.0924 125.427 95.6348 130.082 97.7832C134.737 99.9316 137.96 102.367 139.75 105.088C141.54 107.809 142.436 110.28 142.436 112.5C142.436 117.083 140.609 121.416 136.957 125.498C133.305 129.58 128.793 132.91 123.422 135.488C111.892 141.146 101.83 143.975 93.2363 143.975C84.7142 143.975 78.806 142.65 75.5117 140C72.2891 137.422 70.6777 134.342 70.6777 130.762C70.6777 127.181 71.5729 123.887 73.3633 120.879C75.2253 117.799 77.5885 116.26 80.4531 116.26C83.3177 116.26 84.75 117.012 84.75 118.516Z" fill="white"/>
</svg>
