<svg width="114" height="125" viewBox="0 0 114 125" fill="none" xmlns="http://www.w3.org/2000/svg">
<path d="M41.2 12C41.0667 12.8 40.6 13.6 39.8 14.4C39 15.2 38.1333 15.9333 37.2 16.6C36.4 17.2667 35.6 17.8 34.8 18.2C34 18.6 33.5333 18.7333 33.4 18.6C33.2667 18.4667 33.4 18.0667 33.8 17.4C34.3333 16.6 34.8667 15.8 35.4 15C36.0667 14.0667 36.6667 13.0667 37.2 12C37.7333 10.9333 38.0667 10 38.2 9.2C38.6 6.93333 38.6 4.39999 38.2 1.59999C38.2 0.66666 38.3333 0.199996 38.6 0.199996C38.8667 0.199996 39.2 0.533329 39.6 1.19999C39.7333 1.6 39.8667 1.93333 40 2.19999C40.4 3.26666 40.8 4.73333 41.2 6.6C41.6 8.33333 41.6 10.1333 41.2 12ZM34 9.59999C31.7333 13.0667 28.8 15.8667 25.2 18C21.7333 20 18.0667 21.8667 14.2 23.6C11.9333 24.5333 9.6 25.6667 7.2 27C4.93333 28.2 3.06667 30.1333 1.6 32.8C1.46667 33.2 1.33333 33.4 1.2 33.4C0.933334 33.4 0.8 32.9333 0.8 32C0.4 29.6 0.866667 27.4 2.2 25.4C3.53333 23.4 5.2 21.6667 7.2 20.2C9.2 18.6 11.2 17.2667 13.2 16.2C15.3333 15.1333 17 14.2667 18.2 13.6C20.4667 12.4 23 11.4 25.8 10.6C28.6 9.8 31 9 33 8.2C34.0667 7.8 34.5333 7.86666 34.4 8.4C34.2667 8.93333 34.1333 9.33333 34 9.59999ZM29 23.8C29.1333 24.4667 28.8667 25.1333 28.2 25.8C27.2667 26.7333 25.9333 27.8 24.2 29C22.6 30.2 20.8667 31.3333 19 32.4C17.9333 32.9333 16.6 33.7333 15 34.8C13.5333 35.8667 12.0667 37.0667 10.6 38.4C9.13333 39.6 7.86667 41 6.8 42.6C5.86667 44.0667 5.46667 45.6 5.6 47.2C5.6 47.8667 5.4 48 5 47.6C4.73333 47.3333 4.46667 46.8 4.2 46C3.13333 42.2667 3.13333 38.8667 4.2 35.8C5.4 32.7333 6.93333 30.6667 8.8 29.6C11.3333 28.1333 14.2 26.9333 17.4 26C20.6 24.9333 23.7333 24.1333 26.8 23.6C27.0667 23.6 27.4667 23.6 28 23.6C28.5333 23.4667 28.8667 23.5333 29 23.8ZM49.6 30.6C51.2 33.5333 51.8667 37.2667 51.6 41.8C51.4667 46.2 50.8667 50.8 49.8 55.6C48.7333 60.2667 47.5333 64.8 46.2 69.2C44.8667 73.6 43.8 77.1333 43 79.8C41.6667 84.7333 40 89.7333 38 94.8C36 99.8667 34.1333 104.267 32.4 108C32 109.067 31.5333 109.6 31 109.6C30.6 109.6 30.4 109.4 30.4 109C30.4 108.467 30.4 108 30.4 107.6C30.6667 99.6 31.8667 91.8 34 84.2C36.2667 76.6 38.7333 69 41.4 61.4C43 56.7333 44.5333 51.9333 46 47C47.4667 42.0667 48.2 36.7333 48.2 31C48.2 30.6 48.2 30.2 48.2 29.8C48.2 29.4 48.3333 29.2 48.6 29.2C48.8667 29.2 49.0667 29.4 49.2 29.8C49.4667 30.2 49.6 30.4667 49.6 30.6ZM21.4 76.6C19.2667 83.9333 18.4667 91.8 19 100.2C19.6667 108.467 22.2 116 26.6 122.8C26.8667 123.2 26.6 123.267 25.8 123C22.0667 119.4 19.2667 115.6 17.4 111.6C15.5333 107.467 14.3333 103.267 13.8 99C13.2667 94.7333 13.2667 90.4 13.8 86C14.3333 81.6 15.1333 77.4 16.2 73.4C17.8 67.5333 19.6 61.8 21.6 56.2C23.6 50.6 25.5333 45.1333 27.4 39.8C25.4 40.6 23.3333 41.4667 21.2 42.4C19.2 43.2 17.2667 44.1333 15.4 45.2C13.6667 46.1333 12.1333 47.2667 10.8 48.6C9.46667 49.9333 8.53333 51.4667 8 53.2C7.86667 53.4667 7.66667 53.5333 7.4 53.4C7.26667 53.1333 7.2 52.6667 7.2 52C7.06667 48.4 7.8 45.5333 9.4 43.4C11.1333 41.2667 13.2 39.5333 15.6 38.2C18.1333 36.7333 20.8667 35.4667 23.8 34.4C26.8667 33.2 29.6 31.8667 32 30.4C33.6 29.4667 35.1333 28.2667 36.6 26.8C38.2 25.2 39.5333 23.4 40.6 21.4C41.8 19.4 42.6 17.1333 43 14.6C43.5333 11.9333 43.5333 8.99999 43 5.79999C42.8667 5.13333 42.9333 4.86666 43.2 4.99999C43.4667 4.99999 43.6667 5.13333 43.8 5.4C45.1333 8.86666 45.8 13.6667 45.8 19.8C45.8 25.8 45.1333 32.3333 43.8 39.4C43.2667 42.3333 42.4667 45.5333 41.4 49C40.3333 52.4667 39.1333 56 37.8 59.6C36.6 63.0667 35.2667 66.4667 33.8 69.8C32.4667 73.1333 31.1333 76.0667 29.8 78.6C29.5333 79 29.2 79.6 28.8 80.4C28.5333 81.2 28.2667 81.5333 28 81.4C27.6 81.2667 27.4 80.8 27.4 80C27.4 79.0667 27.4 78.5333 27.4 78.4C27.5333 77.0667 27.7333 75.5333 28 73.8C28.4 71.9333 28.8 70.0667 29.2 68.2C29.7333 66.2 30.2667 64.3333 30.8 62.6C31.3333 60.7333 31.8667 59.1333 32.4 57.8C32.5333 57.2667 32.8667 56.1333 33.4 54.4C33.9333 52.5333 34.4667 50.4 35 48C35.6667 45.4667 36.2667 42.8 36.8 40C37.4667 37.2 38 34.4667 38.4 31.8C36.9333 33.2667 35.2667 36.0667 33.4 40.2C31.6667 44.2 30 48.6 28.4 53.4C26.8 58.0667 25.3333 62.6 24 67C22.8 71.4 21.9333 74.6 21.4 76.6ZM33 123.8C32.2 123.8 31.5333 123.533 31 123C29.1333 121.533 27.6667 120.133 26.6 118.8C25.6667 117.333 24.8667 115.067 24.2 112C23.9333 110.8 23.7333 109.333 23.6 107.6C23.4667 105.733 23.4 104 23.4 102.4C23.4 100.8 23.5333 99.4667 23.8 98.4C24.0667 97.2 24.4667 96.6 25 96.6C25.1333 96.6 25.2667 96.8667 25.4 97.4C25.6667 97.9333 25.8667 98.6 26 99.4C26.2667 100.067 26.4667 100.733 26.6 101.4C26.7333 102.067 26.8 102.533 26.8 102.8C27.0667 104.533 27.2667 106.133 27.4 107.6C27.5333 109.067 27.8 110.533 28.2 112C29.4 116 30.9333 119.6 32.8 122.8C32.9333 122.933 33.0667 123.133 33.2 123.4C33.3333 123.667 33.2667 123.8 33 123.8ZM79.7328 49.2C79.8661 48 80.2661 46.6 80.9328 45C81.5995 43.2667 82.4661 41.6667 83.5328 40.2C84.7328 38.6 86.1328 37.2 87.7328 36C89.3328 34.6667 91.1328 33.8 93.1328 33.4C97.3995 32.6 100.933 32.8667 103.733 34.2C106.533 35.5333 108.666 37.0667 110.133 38.8C110.666 39.6 110.866 40.0667 110.733 40.2C110.466 40.4667 109.999 40.4 109.333 40C108.533 39.4667 107.199 39 105.333 38.6C103.599 38.2 101.666 38.1333 99.5328 38.4C97.5328 38.5333 95.5328 39.1333 93.5328 40.2C91.6661 41.2667 90.1328 43 88.9328 45.4C87.8661 47.6667 87.1328 50 86.7328 52.4C86.3328 54.8 86.0661 57.0667 85.9328 59.2C85.9328 61.2 85.9995 62.9333 86.1328 64.4C86.2661 65.8667 86.3328 66.8667 86.3328 67.4C86.5995 68.8667 86.7995 70.7333 86.9328 73C87.1995 75.1333 87.3328 77.3333 87.3328 79.6C87.3328 81.8667 87.2661 84.1333 87.1328 86.4C86.9995 88.5333 86.7328 90.4 86.3328 92C86.1995 92.4 85.9995 93.0667 85.7328 94C85.5995 94.9333 85.3995 95.4 85.1328 95.4C84.4661 95.4 84.1328 94.9333 84.1328 94C84.1328 93.0667 84.1328 92.4 84.1328 92C83.8661 88.6667 83.3995 85.3333 82.7328 82C82.0661 78.5333 81.3995 75 80.7328 71.4C80.1995 67.8 79.7995 64.2 79.5328 60.6C79.2661 56.8667 79.3328 53.0667 79.7328 49.2ZM72.7328 88.8C72.8661 86.1333 72.5995 82.4 71.9328 77.6C71.3995 72.6667 71.1995 67 71.3328 60.6C71.4661 57.2667 71.7995 53.8667 72.3328 50.4C72.8661 46.8 74.1328 43.2667 76.1328 39.8C78.2661 36.0667 80.9328 33.3333 84.1328 31.6C87.4661 29.7333 90.3328 28.8667 92.7328 29C93.1328 29 93.5328 29 93.9328 29C94.3328 29 94.5328 29.0667 94.5328 29.2C94.5328 29.4667 94.4661 29.6 94.3328 29.6C94.1995 29.4667 93.7328 29.5333 92.9328 29.8C90.5328 30.4667 88.3995 31.6 86.5328 33.2C84.6661 34.6667 83.0661 36.4 81.7328 38.4C80.3995 40.4 79.3328 42.4667 78.5328 44.6C77.7328 46.7333 77.2661 48.6667 77.1328 50.4C76.3328 57.7333 76.3995 64.1333 77.3328 69.6C77.9995 74 78.5328 78.6 78.9328 83.4C79.3328 88.0667 79.1328 92.4 78.3328 96.4C77.6661 100.267 76.2661 103.533 74.1328 106.2C72.1328 108.733 68.9995 110.133 64.7328 110.4C64.3328 110.4 63.7995 110.4 63.1328 110.4C62.5995 110.267 62.3328 110.067 62.3328 109.8C62.3328 109.533 62.9328 109.067 64.1328 108.4C67.5995 106.8 69.8661 104.467 70.9328 101.4C71.9995 98.3333 72.5995 94.1333 72.7328 88.8ZM51.5328 112.4C53.3995 115.333 56.3328 117.533 60.3328 119C64.4661 120.333 69.3328 120.2 74.9328 118.6C77.7328 117.8 80.1995 116.4 82.3328 114.4C84.4661 112.4 86.1995 110.2 87.5328 107.8C88.9995 105.267 90.0661 102.667 90.7328 100C91.5328 97.3333 91.9995 94.8667 92.1328 92.6C92.2661 88.8667 92.1328 85.2 91.7328 81.6C91.4661 78 91.0661 74.5333 90.5328 71.2C90.1328 67.7333 89.7328 64.4 89.3328 61.2C89.0661 58 89.0661 54.8667 89.3328 51.8C89.5995 48.4667 90.5328 45.9333 92.1328 44.2C93.7328 42.4667 95.6661 41.4 97.9328 41C100.333 40.4667 102.799 40.6 105.333 41.4C107.866 42.2 110.199 43.4667 112.333 45.2C112.866 45.4667 113.066 45.8 112.933 46.2C112.933 46.4667 112.799 46.5333 112.533 46.4C112.266 46.2667 111.999 46.1333 111.733 46C106.799 44.4 102.933 43.9333 100.133 44.6C97.4661 45.2667 95.9995 47.6667 95.7328 51.8C95.4661 56.6 95.7995 62.2667 96.7328 68.8C97.7995 75.2 98.1995 82.3333 97.9328 90.2C98.0661 92.8667 97.7328 95.9333 96.9328 99.4C96.2661 102.867 95.0661 106.267 93.3328 109.6C91.7328 112.8 89.5328 115.667 86.7328 118.2C84.0661 120.733 80.8661 122.333 77.1328 123C70.0661 124.067 64.3995 123.667 60.1328 121.8C55.9995 119.933 52.9995 117.067 51.1328 113.2C50.8661 112.4 50.7328 111.933 50.7328 111.8H50.9328C50.9328 111.8 51.1328 112 51.5328 112.4ZM60.3328 112.4C62.8661 113.067 65.9328 113.333 69.5328 113.2C70.7328 113.067 72.1995 112.733 73.9328 112.2C75.6661 111.667 76.5995 111.533 76.7328 111.8C77.1328 112.333 76.7328 113 75.5328 113.8C74.3328 114.6 72.7995 115.333 70.9328 116C69.0661 116.533 67.1328 116.933 65.1328 117.2C63.1328 117.333 61.4661 117.133 60.1328 116.6C57.5995 115.533 55.7995 114.4 54.7328 113.2C53.5328 111.867 52.4661 110.267 51.5328 108.4L51.1328 107.6C50.8661 107.067 50.7995 106.733 50.9328 106.6C51.0661 106.467 51.2661 106.467 51.5328 106.6C51.6661 106.733 51.7328 106.867 51.7328 107C53.3328 108.467 54.6661 109.6 55.7328 110.4C56.9328 111.067 58.4661 111.733 60.3328 112.4Z" fill="white"/>
</svg>
