<svg width="120" height="120" viewBox="0 0 120 120" fill="none" xmlns="http://www.w3.org/2000/svg">
<g clip-path="url(#clip0_7_2)">
<path d="M96 0H24C10.7452 0 0 10.7452 0 24V96C0 109.255 10.7452 120 24 120H96C109.255 120 120 109.255 120 96V24C120 10.7452 109.255 0 96 0Z" fill="#6900FF"/>
<path d="M24.3441 42.1836C25.9624 42 27.9072 45.0892 29 47.5878C28.2086 48.401 27.4261 49.226 26.6525 50.0627C26.3482 49.7169 26.0446 49.3702 25.7419 49.0225C25.7744 52.8916 25.5717 54.8997 25.1337 58.7634C23.3952 60.3731 17.0162 60.3731 14.9469 58.9858C14.4944 55.0031 14.288 52.8742 14.3279 48.8826C13.9996 49.2639 13.6729 49.6428 13.3487 50.0181C12.5699 49.1477 11.787 48.2824 11 47.4223C11.6486 45.1806 13.6712 42 15.6784 42C16.3317 42.8194 16.9903 43.6329 17.6542 44.4403C19.0388 45.8206 21.1392 45.8206 22.3614 44.5115C23.0469 43.7086 23.7118 42.9287 24.3441 42.1836Z" fill="white"/>
<path d="M69 57.894C69 58.038 68.934 58.23 68.802 58.47C68.67 58.71 68.469 58.941 68.199 59.163C67.929 59.385 67.596 59.58 67.2 59.748C66.804 59.916 66.348 60 65.832 60H54.186C53.658 60 53.196 59.916 52.8 59.748C52.404 59.58 52.071 59.385 51.801 59.163C51.531 58.941 51.33 58.71 51.198 58.47C51.066 58.23 51 58.038 51 57.894L52.584 49.416C52.584 49.116 52.689 48.864 52.899 48.66C53.109 48.456 53.358 48.354 53.646 48.354C53.73 48.378 53.826 48.408 53.934 48.444C54.03 48.468 54.144 48.498 54.276 48.534L54.708 48.66V47.256C54.708 46.536 54.846 45.855 55.122 45.213C55.398 44.571 55.776 44.013 56.256 43.539C56.736 43.065 57.297 42.69 57.939 42.414C58.581 42.138 59.268 42 60 42C60.732 42 61.419 42.138 62.061 42.414C62.703 42.69 63.264 43.065 63.744 43.539C64.224 44.013 64.602 44.571 64.878 45.213C65.154 45.855 65.292 46.536 65.292 47.256V48.66L65.724 48.534C65.856 48.498 65.97 48.468 66.066 48.444C66.174 48.408 66.27 48.378 66.354 48.354C66.654 48.354 66.906 48.456 67.11 48.66C67.314 48.864 67.416 49.116 67.416 49.416L69 57.894ZM55.23 52.062C55.53 52.062 55.782 51.96 55.986 51.756C56.19 51.552 56.292 51.3 56.292 51C56.292 50.796 56.244 50.616 56.148 50.46C56.052 50.304 55.926 50.178 55.77 50.082V51H54.708V50.082C54.36 50.274 54.186 50.58 54.186 51C54.186 51.3 54.288 51.552 54.492 51.756C54.696 51.96 54.942 52.062 55.23 52.062ZM55.77 48.912C56.358 49.044 57.018 49.161 57.75 49.263C58.482 49.365 59.232 49.416 60 49.416C60.768 49.416 61.518 49.365 62.25 49.263C62.982 49.161 63.648 49.044 64.248 48.912V47.418C64.248 46.818 64.137 46.254 63.915 45.726C63.693 45.198 63.39 44.736 63.006 44.34C62.622 43.944 62.172 43.632 61.656 43.404C61.14 43.176 60.588 43.062 60 43.062C59.412 43.062 58.863 43.176 58.353 43.404C57.843 43.632 57.396 43.944 57.012 44.34C56.628 44.736 56.325 45.198 56.103 45.726C55.881 46.254 55.77 46.818 55.77 47.418V48.912ZM64.77 52.062C65.07 52.062 65.322 51.96 65.526 51.756C65.73 51.552 65.832 51.3 65.832 51C65.832 50.796 65.784 50.616 65.688 50.46C65.592 50.304 65.46 50.178 65.292 50.082V51H64.248V50.082C64.08 50.178 63.948 50.304 63.852 50.46C63.756 50.616 63.708 50.796 63.708 51C63.708 51.3 63.813 51.552 64.023 51.756C64.233 51.96 64.482 52.062 64.77 52.062Z" fill="white"/>
<mask id="mask0_7_2" style="mask-type:luminance" maskUnits="userSpaceOnUse" x="31" y="42" width="18" height="18">
<path d="M49 42H31V60H49V42Z" fill="white"/>
</mask>
<g mask="url(#mask0_7_2)">
<path d="M46.4818 46.9818C46.142 45.8565 44.3218 42.2812 40.4495 42.2812C35.5389 42.2812 31.3846 47.2054 32.138 55.5H44.7957C44.8581 53.2025 44.0698 50.0086 42.7831 48.4313C43.7289 48.8783 43.8366 48.9235 44.7957 49.074" fill="white"/>
<path d="M42.8125 48.4688C44.0688 50.683 44.6544 53.0419 44.7812 55.5H32.9688C40.6708 55.8007 43.9999 53.4857 42.8125 48.4688Z" fill="white"/>
<path d="M45.3438 56.3438C45.3438 56.1199 45.2549 55.9053 45.0965 55.7472C45.0182 55.6688 44.9252 55.6066 44.8229 55.5642C44.7205 55.5218 44.6108 55.5 44.5 55.5H32.125C31.9011 55.5 31.6865 55.5889 31.5285 55.7472C31.4501 55.8255 31.3879 55.9185 31.3454 56.0209C31.303 56.1232 31.2812 56.2329 31.2813 56.3438V58.875C31.2813 59.0989 31.3701 59.3135 31.5285 59.4715C31.6068 59.5499 31.6998 59.6121 31.8021 59.6545C31.9045 59.697 32.0142 59.7188 32.125 59.7188H44.5C44.7239 59.7188 44.9385 59.6299 45.0965 59.4715C45.1749 59.3932 45.2371 59.3002 45.2795 59.1979C45.322 59.0955 45.3438 58.9858 45.3438 58.875V56.3438Z" fill="white"/>
<path d="M45.0313 55.7812C45.3117 59.0494 37.7129 59.8681 31.2812 59.7188H44.2188C44.3665 59.7188 44.5128 59.6897 44.6493 59.6331C44.7857 59.5766 44.9097 59.4937 45.0141 59.3891C45.1187 59.2847 45.2016 59.1607 45.2581 59.0243C45.3147 58.8878 45.3438 58.7415 45.3438 58.5938V56.625" fill="white"/>
<path d="M46.5596 51.2621C45.5617 51.1758 44.7812 50.3346 44.7812 49.3125C44.7812 48.226 45.6635 47.3437 46.75 47.3437C47.1165 47.342 47.4757 47.4463 47.7842 47.6441L47.5938 47.625C46.5073 47.625 45.625 48.5073 45.625 49.5938C45.6245 49.9287 45.7102 50.2581 45.8739 50.5503C46.0376 50.8425 46.2737 51.0876 46.5596 51.2621Z" fill="white"/>
<path d="M47.7842 47.6441C48.07 47.8186 48.3062 48.0638 48.4698 48.356C48.6335 48.6482 48.7192 48.9776 48.7188 49.3125C48.7188 50.399 47.8365 51.2812 46.75 51.2812L46.5596 51.2621C46.2737 51.0876 46.0376 50.8425 45.8739 50.5503C45.7102 50.2581 45.6245 49.9287 45.625 49.5938C45.625 48.5073 46.5073 47.625 47.5938 47.625L47.7842 47.6441Z" fill="white"/>
</g>
<mask id="mask1_7_2" style="mask-type:luminance" maskUnits="userSpaceOnUse" x="91" y="42" width="18" height="18">
<path d="M109 42H91V60H109V42Z" fill="white"/>
</mask>
<g mask="url(#mask1_7_2)">
<path d="M100.428 42H93.5472C93.3976 42 93.2713 42.1406 93.2461 42.3349L91.0042 59.5295C90.9732 59.775 91.1169 60 91.3054 60H97.3451C97.4869 60 97.6112 59.8722 97.6423 59.6881L98.9361 52.373C98.9692 52.1915 99.0916 52.0611 99.2334 52.0611H100.764C100.906 52.0611 101.03 52.1889 101.061 52.373L102.355 59.6881C102.388 59.8696 102.511 60 102.652 60H108.694C108.885 60 109.028 59.775 108.995 59.5295L106.755 42.3349C106.73 42.1406 106.604 42 106.454 42H100.428Z" fill="white"/>
</g>
<path d="M83.421 43.5338L83.2899 42.7773C83.2149 42.3273 82.8399 42 82.4084 42H77.383C76.9519 42 76.5954 42.3273 76.5019 42.7773L76.3704 43.5338C76.3166 43.7996 76.212 44.0499 76.0633 44.2685C75.9147 44.487 75.7254 44.6688 75.5078 44.802V44.8636C75.5078 48.1364 77.477 50.7753 79.9147 50.7753C82.3524 50.7753 84.321 48.1162 84.321 44.8636V44.802C83.871 44.5162 83.5335 44.0864 83.421 43.5338Z" fill="white"/>
<path d="M87.0403 45.0682H85.2586C85.1836 48.6065 83.0645 51.5111 80.3642 51.8182L81.2458 53.2909C81.3208 53.4136 81.3208 53.5773 81.2458 53.7L80.1772 55.5C80.1472 55.5517 80.1056 55.5943 80.0565 55.6238C80.0073 55.6533 79.9521 55.6688 79.896 55.6688C79.8398 55.6688 79.7846 55.6533 79.7354 55.6238C79.6863 55.5943 79.6447 55.5517 79.6147 55.5L78.5456 53.7C78.5089 53.6393 78.4893 53.5682 78.4893 53.4955C78.4893 53.4227 78.5089 53.3516 78.5456 53.2909L79.4267 51.8182C76.7454 51.5111 74.6078 48.6071 74.5328 45.0682H72.7511C71.57 45.0682 70.726 46.3156 71.0825 47.5636L74.2327 58.5273C74.3422 58.9172 74.5633 59.2586 74.8636 59.5016C75.1638 59.7445 75.5275 59.8762 75.9014 59.8773H83.927C84.301 59.8763 84.6648 59.7447 84.9651 59.5017C85.2655 59.2588 85.4867 58.9173 85.5962 58.5273L88.7464 47.5636C89.084 46.3162 88.2219 45.0682 87.0403 45.0682Z" fill="white"/>
<path d="M12.5547 62.375C13.0651 62.375 13.5026 62.5482 13.8672 62.8945C14.2318 63.2227 14.4232 63.6419 14.4414 64.1523V64.6719C14.4232 65.4193 14.4688 66.112 14.5781 66.75C14.7057 67.3698 14.9974 67.9258 15.4531 68.418C15.9089 68.9102 16.4831 69.1745 17.1758 69.2109H24.8594V64.207C24.8594 63.6966 25.0417 63.2773 25.4062 62.9492C25.7891 62.6029 26.2357 62.4297 26.7461 62.4297C27.8398 62.5208 28.4414 63.1133 28.5508 64.207V70.5508C28.5508 72.0091 28.3503 73.3854 27.9492 74.6797C27.5846 75.8281 26.9831 76.8034 26.1445 77.6055C25.3242 78.3893 24.276 78.8177 23 78.8906H13.1562C12.6641 78.8724 12.2448 78.6992 11.8984 78.3711C11.5703 78.0247 11.3971 77.6055 11.3789 77.1133C11.3789 76.6029 11.543 76.1654 11.8711 75.8008C12.2174 75.4362 12.6458 75.2448 13.1562 75.2266H22.0703C22.763 75.1901 23.3372 74.9258 23.793 74.4336C24.2122 73.9779 24.4948 73.4583 24.6406 72.875H16.2461C14.9701 72.8021 13.9128 72.3737 13.0742 71.5898C12.2539 70.7878 11.6615 69.8125 11.2969 68.6641C10.9505 67.5156 10.7682 66.2943 10.75 65V64.1523C10.7682 63.6602 10.9505 63.25 11.2969 62.9219C11.6432 62.5755 12.0625 62.3932 12.5547 62.375ZM31.5586 77.1133C31.5586 76.6029 31.7318 76.1745 32.0781 75.8281C32.4427 75.4635 32.8802 75.2812 33.3906 75.2812H38.6406V66.4766H33.3906C32.8802 66.4766 32.4518 66.2943 32.1055 65.9297C31.7409 65.5833 31.5586 65.1549 31.5586 64.6445C31.5586 64.1341 31.7318 63.7057 32.0781 63.3594C32.4427 62.9948 32.8802 62.8125 33.3906 62.8125H47.5547C48.0651 62.8125 48.5026 62.9857 48.8672 63.332C49.2135 63.6966 49.3867 64.1341 49.3867 64.6445C49.3867 65.1549 49.2044 65.5924 48.8398 65.957C48.4935 66.3034 48.0651 66.4766 47.5547 66.4766H42.332V75.2812H47.5547C48.0651 75.2812 48.5026 75.4544 48.8672 75.8008C49.2135 76.1654 49.3867 76.6029 49.3867 77.1133C49.3867 77.6237 49.2044 78.0612 48.8398 78.4258C48.4935 78.7721 48.0651 78.9453 47.5547 78.9453H33.3906C32.8802 78.9453 32.4518 78.763 32.1055 78.3984C31.7409 78.0521 31.5586 77.6237 31.5586 77.1133ZM69.8945 64.6445C69.8945 65.1549 69.7122 65.5833 69.3477 65.9297C69.0013 66.2943 68.5729 66.4766 68.0625 66.4766H57.125C56.7786 66.4948 56.487 66.5768 56.25 66.7227C56.0312 66.8503 55.8672 67.0052 55.7578 67.1875C55.6484 67.3516 55.5938 67.5247 55.5938 67.707C55.5938 67.8893 55.6484 68.0716 55.7578 68.2539C55.8672 68.418 56.0312 68.5729 56.25 68.7188C56.487 68.8464 56.7786 68.9193 57.125 68.9375H64.8906C66.1667 68.974 67.2148 69.2747 68.0352 69.8398C68.8737 70.3867 69.4661 71.0247 69.8125 71.7539C70.1771 72.4648 70.3594 73.194 70.3594 73.9414C70.3594 74.6706 70.1771 75.3997 69.8125 76.1289C69.4479 76.8398 68.8555 77.4779 68.0352 78.043C67.2148 78.5898 66.1667 78.8633 64.8906 78.8633H64.7266C64.6172 78.8815 64.5078 78.8906 64.3984 78.8906H54.0625C53.5521 78.8906 53.1146 78.7174 52.75 78.3711C52.4036 78.0065 52.2305 77.569 52.2305 77.0586C52.2305 76.5482 52.4128 76.1198 52.7773 75.7734C53.1237 75.4089 53.5521 75.2266 54.0625 75.2266H65.0547C65.401 75.2448 65.6836 75.181 65.9023 75.0352C66.1393 74.8893 66.3125 74.7253 66.4219 74.543C66.5312 74.3424 66.5859 74.1419 66.5859 73.9414C66.5859 73.8138 66.5312 73.6406 66.4219 73.4219C66.3125 73.1849 66.1393 72.9935 65.9023 72.8477C65.6836 72.7018 65.401 72.6198 65.0547 72.6016H57.2891C56.013 72.5651 54.9557 72.2734 54.1172 71.7266C53.2969 71.1797 52.7044 70.5599 52.3398 69.8672C51.9935 69.1562 51.8203 68.4362 51.8203 67.707C51.8203 66.9961 52.0026 66.2943 52.3672 65.6016C52.7318 64.8906 53.3242 64.2617 54.1445 63.7148C54.9648 63.168 56.013 62.8763 57.2891 62.8398H57.4531C57.5625 62.8216 57.6719 62.8125 57.7812 62.8125H68.0625C68.5729 62.8125 69.0013 62.9948 69.3477 63.3594C69.7122 63.7057 69.8945 64.1341 69.8945 64.6445ZM75.3086 62.375C75.8008 62.3932 76.2201 62.5755 76.5664 62.9219C76.9128 63.25 77.0951 63.6602 77.1133 64.1523V68.7188H86V64.1523C86.0182 63.6419 86.2096 63.2227 86.5742 62.8945C86.9388 62.5482 87.3763 62.375 87.8867 62.375C88.3789 62.3932 88.7982 62.5755 89.1445 62.9219C89.4909 63.25 89.6732 63.6602 89.6914 64.1523V77.5508C89.582 78.6445 88.9805 79.237 87.8867 79.3281C87.3763 79.3281 86.9297 79.1641 86.5469 78.8359C86.1823 78.4896 86 78.0612 86 77.5508V72.3828H77.1133V77.5508C77.0039 78.6445 76.4023 79.237 75.3086 79.3281C74.7982 79.3281 74.3516 79.1641 73.9688 78.8359C73.6042 78.4896 73.4219 78.0612 73.4219 77.5508V64.1523C73.4401 63.6419 73.6315 63.2227 73.9961 62.8945C74.3607 62.5482 74.7982 62.375 75.3086 62.375ZM98.168 62.8125H99.4258H108.723C109.233 62.8307 109.652 63.0221 109.98 63.3867C110.327 63.7513 110.5 64.1888 110.5 64.6992C110.409 65.793 109.816 66.3854 108.723 66.4766H99.0977C98.4049 66.513 97.8307 66.7773 97.375 67.2695C96.9193 67.7617 96.582 68.3268 96.3633 68.9648C96.1628 69.5846 96.0625 70.2227 96.0625 70.8789C96.0625 71.5352 96.1628 72.1823 96.3633 72.8203C96.582 73.4401 96.9193 73.9961 97.375 74.4883C97.8307 74.9805 98.4049 75.2448 99.0977 75.2812H108.723C109.233 75.2995 109.652 75.4909 109.98 75.8555C110.327 76.2201 110.5 76.6576 110.5 77.168C110.482 77.6602 110.299 78.0794 109.953 78.4258C109.625 78.7539 109.215 78.9271 108.723 78.9453H98.6875H98.168C96.8919 78.8724 95.8346 78.3893 94.9961 77.4961C94.1758 76.5846 93.5833 75.5547 93.2188 74.4062C92.8724 73.2578 92.6992 72.082 92.6992 70.8789C92.6992 69.6758 92.8815 68.5 93.2461 67.3516C93.6107 66.2031 94.2031 65.1823 95.0234 64.2891C95.8438 63.3776 96.8919 62.8854 98.168 62.8125ZM110.445 70.7695C110.445 71.2799 110.263 71.7083 109.898 72.0547C109.552 72.4193 109.124 72.6016 108.613 72.6016H100.355C99.8451 72.6016 99.4076 72.4284 99.043 72.082C98.6966 71.7174 98.5234 71.2799 98.5234 70.7695C98.5234 70.2591 98.6966 69.8216 99.043 69.457C99.4076 69.1107 99.8451 68.9375 100.355 68.9375H108.613C109.124 68.9375 109.552 69.1198 109.898 69.4844C110.263 69.8307 110.445 70.2591 110.445 70.7695Z" fill="white"/>
</g>
<defs>
<clipPath id="clip0_7_2">
<rect width="120" height="120" fill="white"/>
</clipPath>
</defs>
</svg>
