<svg width="145" height="137" viewBox="0 0 145 137" fill="none" xmlns="http://www.w3.org/2000/svg">
<path d="M52.3477 68.9766C30.0755 105.715 17.8652 127.199 15.7168 133.43C15.7168 133.716 14.6426 134.146 12.4941 134.719C10.3457 135.363 8.98503 135.686 8.41211 135.686C7.91081 135.686 7.48112 135.363 7.12305 134.719C5.47591 131.711 4.25846 129.742 3.4707 128.811C2.68294 127.88 1.89518 127.199 1.10742 126.77C0.391276 126.34 0.0332031 126.053 0.0332031 125.91C0.0332031 124.191 7.44531 111.014 22.2695 86.3789C37.0938 61.6719 48.946 43.0521 57.8262 30.5195C55.248 32.3099 52.8848 34.0645 50.7363 35.7832C48.6595 37.502 47.3704 38.3613 46.8691 38.3613C46.4395 38.3613 46.0814 38.0749 45.7949 37.502C45.5085 36.8574 45.2578 36.1055 45.043 35.2461C44.8281 34.3867 44.4701 33.599 43.9688 32.8828C43.4674 32.0951 43.2526 31.4505 43.3242 30.9492C43.3958 30.3763 43.6823 29.4453 44.1836 28.1562C44.6849 26.8672 47.3704 23.9668 52.2402 19.4551C57.1816 14.9434 62.4453 10.6823 68.0312 6.67188C73.6888 2.58984 77.4844 0.548828 79.418 0.548828C81.3516 0.548828 83.3926 1.69466 85.541 3.98633C87.6895 6.20638 88.7637 8.31901 88.7637 10.3242C88.6921 11.1836 83.8223 19.1686 74.1543 34.2793C64.5579 49.3184 57.2891 60.8841 52.3477 68.9766ZM69.75 111.516L69.6426 113.234C69.6426 115.025 70.3229 116.564 71.6836 117.854C73.0443 119.143 74.2975 119.787 75.4434 119.787C84.0371 119.787 91.6283 118.498 98.2168 115.92C104.877 113.342 108.207 110.764 108.207 108.186C108.207 106.968 106.99 105.93 104.555 105.07C102.191 104.139 98.1452 103.029 92.416 101.74C86.7585 100.38 82.6406 99.3411 80.0625 98.625C77.4844 97.8372 75.4434 97.1211 73.9395 96.4766C72.4355 95.832 70.8958 94.9368 69.3203 93.791C65.9544 91.4277 64.2715 87.9186 64.2715 83.2637C64.2715 78.5371 65.9902 73.8822 69.4277 69.2988C72.9368 64.6439 77.3053 60.6693 82.5332 57.375C87.7611 54.0807 93.3828 51.1803 99.3984 48.6738C111.286 43.7324 121.277 41.2617 129.369 41.2617C137.318 41.2617 142.224 42.9805 144.086 46.418C144.659 47.6354 144.945 48.9961 144.945 50.5V51.252C144.945 55.0475 144.122 58.0195 142.475 60.168C140.899 62.3164 138.357 64.25 134.848 65.9688C131.41 67.6875 128.653 68.5469 126.576 68.5469C124.571 68.5469 123.282 68.4036 122.709 68.1172C122.208 67.8307 121.778 67.4727 121.42 67.043C121.062 66.5417 120.596 66.1836 120.023 65.9688C119.522 65.7539 119.271 65.2168 119.271 64.3574C119.271 63.498 119.63 62.6387 120.346 61.7793C121.062 60.8483 121.563 59.8815 121.85 58.8789C117.123 59.0938 112.182 60.2038 107.025 62.209C101.869 64.1426 97.429 66.3268 93.7051 68.7617C90.0527 71.1966 87.0091 73.5241 84.5742 75.7441C82.1393 77.9642 80.9219 79.6113 80.9219 80.6855C80.9219 81.6882 82.569 82.5117 85.8633 83.1562C100.688 86.0924 110.427 88.6348 115.082 90.7832C119.737 92.9316 122.96 95.3665 124.75 98.0879C126.54 100.809 127.436 103.28 127.436 105.5C127.436 110.083 125.609 114.416 121.957 118.498C118.305 122.58 113.793 125.91 108.422 128.488C96.8919 134.146 86.8301 136.975 78.2363 136.975C69.7142 136.975 63.806 135.65 60.5117 133C57.2891 130.422 55.6777 127.342 55.6777 123.762C55.6777 120.181 56.5729 116.887 58.3633 113.879C60.2253 110.799 62.5885 109.26 65.4531 109.26C68.3177 109.26 69.75 110.012 69.75 111.516Z" fill="white"/>
</svg>
