<svg width="153" height="149" viewBox="0 0 153 149" fill="none" xmlns="http://www.w3.org/2000/svg">
<rect width="153" height="149" rx="32" fill="black"/>
<path d="M89.9 95.7L90 110.6C71.9 115.4 68.5 116.2 42.6 121.5C41 121.8 40.3 122 39.2 122.3L36.4 105.9C37.2 105.8 37.2 105.8 39.9 105.6C40.7 105.6 44.4 105 50.8 104V84.4C46.3 87.8 41.4 90.9 35.2 94.5C32.9 88.3 31 85 27.1 80.4C41.6 73.6 53.9 63.7 59.7 54.3H44C37.6 54.3 34.3 54.4 30.3 54.9V39.3C34.5 39.8 38.8 40 44.4 40H67.3V36.2C67.3 33.6 67.1 31.4 66.8 29.2H83.7C83.4 31.3 83.2 33.4 83.2 36.2V40H107.8C113.8 40 117.7 39.8 121.6 39.3V54.7C118.2 54.4 114.3 54.3 108.1 54.3H88.4C89.3 61 90.3 64.9 92.8 70.8C99.6 65.9 105.9 60.2 108 56.9L119.7 67.4C118.8 68.2 118.8 68.2 116.9 69.8C110.5 75.5 105.9 79.3 99.9 83.5C106.5 92.6 113.9 98.8 124.9 104.4C120.2 109.9 118.1 113.2 115.1 119.8C104.1 112.6 97 105.8 89.9 95.7ZM66.6 70.1V101.2C75.5 99.4 76.7 99.1 89.7 95.4C82.4 84.8 77.2 72.3 74.8 59.4C72.4 63 69.7 66.6 66.6 70.1Z" fill="white"/>
</svg>
