<svg width="1018" height="189" viewBox="0 0 1018 189" fill="none" xmlns="http://www.w3.org/2000/svg">
<path d="M82.3398 0.394531V146H42.1055V50.5898C35.5951 55.5378 29.2799 59.5417 23.1602 62.6016C17.1055 65.6615 9.48828 68.5911 0.308594 71.3906V38.7734C13.8503 34.4115 24.3646 29.1706 31.8516 23.0508C39.3385 16.931 45.1979 9.37891 49.4297 0.394531H82.3398ZM122.379 117.289L161.832 113.578C163.46 118.266 165.738 121.618 168.668 123.637C171.598 125.655 175.504 126.664 180.387 126.664C185.725 126.664 189.859 125.525 192.789 123.246C195.068 121.553 196.207 119.438 196.207 116.898C196.207 114.034 194.71 111.82 191.715 110.258C189.566 109.151 183.87 107.784 174.625 106.156C160.823 103.747 151.22 101.534 145.816 99.5156C140.478 97.4323 135.953 93.9492 132.242 89.0664C128.596 84.1836 126.773 78.6172 126.773 72.3672C126.773 65.5312 128.759 59.6393 132.73 54.6914C136.702 49.7435 142.171 46.0651 149.137 43.6562C156.103 41.1823 165.445 39.9453 177.164 39.9453C189.534 39.9453 198.648 40.8893 204.508 42.7773C210.432 44.6654 215.348 47.5951 219.254 51.5664C223.225 55.5378 226.513 60.9089 229.117 67.6797L191.422 71.3906C190.445 68.0703 188.818 65.6289 186.539 64.0664C183.414 61.9831 179.638 60.9414 175.211 60.9414C170.719 60.9414 167.431 61.7552 165.348 63.3828C163.329 64.9453 162.32 66.8659 162.32 69.1445C162.32 71.6836 163.622 73.6042 166.227 74.9062C168.831 76.2083 174.495 77.3802 183.219 78.4219C196.435 79.9193 206.266 82.0026 212.711 84.6719C219.156 87.3411 224.072 91.1497 227.457 96.0977C230.908 101.046 232.633 106.482 232.633 112.406C232.633 118.396 230.81 124.223 227.164 129.887C223.583 135.551 217.887 140.076 210.074 143.461C202.327 146.781 191.747 148.441 178.336 148.441C159.391 148.441 145.882 145.74 137.809 140.336C129.801 134.932 124.658 127.25 122.379 117.289ZM427.652 2.83594V146H390.445V130.668C385.237 137.178 380.484 141.573 376.188 143.852C370.458 146.846 364.078 148.344 357.047 148.344C342.919 148.344 332.112 142.973 324.625 132.23C317.203 121.488 313.492 108.435 313.492 93.0703C313.492 75.8828 317.594 62.7318 325.797 53.6172C334.065 44.5026 344.547 39.9453 357.242 39.9453C363.427 39.9453 369.026 40.987 374.039 43.0703C379.117 45.1536 383.609 48.2786 387.516 52.4453V2.83594H427.652ZM387.809 93.8516C387.809 85.7135 386.083 79.6589 382.633 75.6875C379.182 71.651 374.82 69.6328 369.547 69.6328C364.924 69.6328 361.051 71.5534 357.926 75.3945C354.801 79.2357 353.238 85.681 353.238 94.7305C353.238 103.194 354.833 109.411 358.023 113.383C361.279 117.289 365.283 119.242 370.035 119.242C375.113 119.242 379.345 117.257 382.73 113.285C386.116 109.314 387.809 102.836 387.809 93.8516ZM567.008 104.008H487.32C488.036 110.388 489.762 115.141 492.496 118.266C496.337 122.758 501.35 125.004 507.535 125.004C511.441 125.004 515.152 124.027 518.668 122.074C520.816 120.837 523.128 118.656 525.602 115.531L564.762 119.145C558.772 129.561 551.546 137.048 543.082 141.605C534.618 146.098 522.477 148.344 506.656 148.344C492.919 148.344 482.112 146.423 474.234 142.582C466.357 138.676 459.814 132.523 454.605 124.125C449.462 115.661 446.891 105.733 446.891 94.3398C446.891 78.1289 452.066 65.0104 462.418 54.9844C472.835 44.9583 487.19 39.9453 505.484 39.9453C520.328 39.9453 532.047 42.1914 540.641 46.6836C549.234 51.1758 555.777 57.6862 560.27 66.2148C564.762 74.7435 567.008 85.8438 567.008 99.5156V104.008ZM526.578 84.9648C525.797 77.2826 523.714 71.7812 520.328 68.4609C517.008 65.1406 512.613 63.4805 507.145 63.4805C500.829 63.4805 495.784 65.987 492.008 71C489.599 74.125 488.069 78.7799 487.418 84.9648H526.578ZM578.238 117.289L617.691 113.578C619.319 118.266 621.598 121.618 624.527 123.637C627.457 125.655 631.363 126.664 636.246 126.664C641.585 126.664 645.719 125.525 648.648 123.246C650.927 121.553 652.066 119.438 652.066 116.898C652.066 114.034 650.569 111.82 647.574 110.258C645.426 109.151 639.729 107.784 630.484 106.156C616.682 103.747 607.079 101.534 601.676 99.5156C596.337 97.4323 591.812 93.9492 588.102 89.0664C584.456 84.1836 582.633 78.6172 582.633 72.3672C582.633 65.5312 584.618 59.6393 588.59 54.6914C592.561 49.7435 598.03 46.0651 604.996 43.6562C611.962 41.1823 621.305 39.9453 633.023 39.9453C645.393 39.9453 654.508 40.8893 660.367 42.7773C666.292 44.6654 671.207 47.5951 675.113 51.5664C679.085 55.5378 682.372 60.9089 684.977 67.6797L647.281 71.3906C646.305 68.0703 644.677 65.6289 642.398 64.0664C639.273 61.9831 635.497 60.9414 631.07 60.9414C626.578 60.9414 623.29 61.7552 621.207 63.3828C619.189 64.9453 618.18 66.8659 618.18 69.1445C618.18 71.6836 619.482 73.6042 622.086 74.9062C624.69 76.2083 630.354 77.3802 639.078 78.4219C652.294 79.9193 662.125 82.0026 668.57 84.6719C675.016 87.3411 679.931 91.1497 683.316 96.0977C686.767 101.046 688.492 106.482 688.492 112.406C688.492 118.396 686.669 124.223 683.023 129.887C679.443 135.551 673.746 140.076 665.934 143.461C658.186 146.781 647.607 148.441 634.195 148.441C615.25 148.441 601.741 145.74 593.668 140.336C585.66 134.932 580.517 127.25 578.238 117.289ZM709 2.83594H748.746V29.8867H709V2.83594ZM709 42.2891H748.746V146H709V42.2891ZM846.305 42.2891H883.512V140.238L883.609 144.828C883.609 151.339 882.21 157.523 879.41 163.383C876.676 169.307 872.997 174.092 868.375 177.738C863.818 181.384 857.991 184.021 850.895 185.648C843.863 187.276 835.79 188.09 826.676 188.09C805.842 188.09 791.52 184.965 783.707 178.715C775.96 172.465 772.086 164.099 772.086 153.617C772.086 152.315 772.151 150.557 772.281 148.344L810.855 152.738C811.832 156.319 813.329 158.793 815.348 160.16C818.277 162.178 821.956 163.188 826.383 163.188C832.112 163.188 836.376 161.658 839.176 158.598C842.04 155.538 843.473 150.199 843.473 142.582V126.859C839.566 131.482 835.66 134.835 831.754 136.918C825.634 140.173 819.026 141.801 811.93 141.801C798.062 141.801 786.865 135.746 778.336 123.637C772.281 115.043 769.254 103.682 769.254 89.5547C769.254 73.4089 773.16 61.1042 780.973 52.6406C788.785 44.1771 799.007 39.9453 811.637 39.9453C819.71 39.9453 826.35 41.3125 831.559 44.0469C836.832 46.7812 841.747 51.306 846.305 57.6211V42.2891ZM808.902 92.582C808.902 100.069 810.497 105.635 813.688 109.281C816.878 112.862 821.077 114.652 826.285 114.652C831.233 114.652 835.367 112.797 838.688 109.086C842.073 105.31 843.766 99.6458 843.766 92.0938C843.766 84.5417 842.008 78.7799 838.492 74.8086C834.977 70.7721 830.68 68.7539 825.602 68.7539C820.523 68.7539 816.454 70.6094 813.395 74.3203C810.4 77.9661 808.902 84.0534 808.902 92.582ZM907.535 42.2891H944.547V59.1836C950.081 52.2826 955.68 47.3672 961.344 44.4375C967.008 41.4427 973.909 39.9453 982.047 39.9453C993.049 39.9453 1001.64 43.2331 1007.83 49.8086C1014.08 56.319 1017.2 66.4102 1017.2 80.082V146H977.262V88.9688C977.262 82.4583 976.057 77.8685 973.648 75.1992C971.24 72.4648 967.854 71.0977 963.492 71.0977C958.674 71.0977 954.768 72.9206 951.773 76.5664C948.779 80.2122 947.281 86.7552 947.281 96.1953V146H907.535V42.2891Z" fill="white"/>
</svg>
