<svg width="1023" height="198" viewBox="0 0 1023 198" fill="none" xmlns="http://www.w3.org/2000/svg">
<path d="M75.3477 128.359V160H7.96484V128.164L16.7539 128.359V67.2266H0.738281V42.0312L65.3867 25.8203L65.9727 128.359H75.3477ZM145.27 161.758C131.923 161.758 120.107 158.242 109.82 151.211L106.598 160H88.4336V121.426H110.211C111.057 126.374 113.368 130.801 117.145 134.707C120.921 138.613 125.283 140.566 130.23 140.566C132.118 140.566 133.746 140.046 135.113 139.004C136.546 137.962 137.262 136.237 137.262 133.828C137.262 131.419 135.895 129.238 133.16 127.285C130.361 125.267 126.194 122.956 120.66 120.352C113.954 117.031 108.486 114.004 104.254 111.27C99.957 108.535 96.2461 104.954 93.1211 100.527C89.9961 96.0352 88.4336 90.6641 88.4336 84.4141C88.4336 77.9688 90.5495 72.3698 94.7812 67.6172C99.013 62.9297 104.579 59.3815 111.48 56.9727C118.382 54.5638 125.901 53.3594 134.039 53.3594C144.651 53.3594 154.514 56.1589 163.629 61.7578L166.07 55.4102H182.281V86.5625H163.434C161.806 82.3307 159.462 79.0104 156.402 76.6016C153.342 74.1927 149.762 72.9883 145.66 72.9883C140.842 72.9883 138.434 74.5182 138.434 77.5781C138.499 79.6615 139.768 81.4518 142.242 82.9492C144.716 84.3815 148.72 86.3346 154.254 88.8086C157.704 90.2409 160.862 91.6732 163.727 93.1055C166.591 94.5378 169.163 95.9049 171.441 97.207C175.999 99.8763 179.97 103.652 183.355 108.535C186.741 113.353 188.434 119.375 188.434 126.602C188.434 134.284 186.448 140.729 182.477 145.938C178.505 151.211 173.232 155.182 166.656 157.852C160.081 160.456 152.952 161.758 145.27 161.758ZM302.398 161.758C292.958 161.758 284.788 159.251 277.887 154.238C271.051 149.225 265.842 142.52 262.262 134.121C258.746 125.658 256.988 116.348 256.988 106.191C256.988 97.0117 258.811 88.3203 262.457 80.1172C266.103 72.0443 271.246 65.5664 277.887 60.6836C284.592 55.8008 292.503 53.3594 301.617 53.3594C308.258 53.3594 313.954 54.4336 318.707 56.582C323.46 58.7305 327.887 61.9206 331.988 66.1523V40.5664H316.363V14.0039L378.961 7.55859V130.605H391.363V160H331.207V147.402C328.017 151.699 323.948 155.15 319 157.754C314.052 160.293 308.518 161.628 302.398 161.758ZM318.023 133.242C321.083 133.242 323.85 132.526 326.324 131.094C328.798 129.596 330.686 127.839 331.988 125.82V88.8086C330.491 87.0508 328.473 85.4883 325.934 84.1211C323.46 82.6888 320.823 81.9727 318.023 81.9727C312.945 81.9727 308.811 84.056 305.621 88.2227C302.431 92.3242 300.836 98.3138 300.836 106.191C300.836 114.199 302.301 120.71 305.23 125.723C308.16 130.736 312.424 133.242 318.023 133.242ZM463.434 161.758C451.324 161.758 440.81 159.512 431.891 155.02C422.906 150.592 416.005 144.245 411.188 135.977C406.435 127.708 404.059 118.04 404.059 106.973C404.059 96.0352 406.402 86.5299 411.09 78.457C415.712 70.4492 422.255 64.2643 430.719 59.9023C439.182 55.5404 449.111 53.3594 460.504 53.3594C470.986 53.3594 480.23 55.4102 488.238 59.5117C496.246 63.6784 502.431 69.5703 506.793 77.1875C511.22 84.8047 513.434 93.6914 513.434 103.848C513.434 107.363 512.913 110.684 511.871 113.809H451.031C451.031 119.928 453.342 124.844 457.965 128.555C462.587 132.201 468.154 134.023 474.664 134.023C479.612 134.023 485.048 133.177 490.973 131.484C496.897 129.727 502.854 127.025 508.844 123.379L510.504 123.965V150.234C503.798 154.076 496.897 156.973 489.801 158.926C482.77 160.814 473.98 161.758 463.434 161.758ZM451.031 93.7891V96.6211H476.031V94.5703C476.031 89.9479 474.957 85.9766 472.809 82.6562C470.725 79.2708 467.6 77.5781 463.434 77.5781C459.983 77.5781 457.053 79.3034 454.645 82.7539C452.236 86.1393 451.031 89.8177 451.031 93.7891ZM585.504 161.758C572.158 161.758 560.341 158.242 550.055 151.211L546.832 160H528.668V121.426H550.445C551.292 126.374 553.603 130.801 557.379 134.707C561.155 138.613 565.517 140.566 570.465 140.566C572.353 140.566 573.98 140.046 575.348 139.004C576.78 137.962 577.496 136.237 577.496 133.828C577.496 131.419 576.129 129.238 573.395 127.285C570.595 125.267 566.428 122.956 560.895 120.352C554.189 117.031 548.72 114.004 544.488 111.27C540.191 108.535 536.48 104.954 533.355 100.527C530.23 96.0352 528.668 90.6641 528.668 84.4141C528.668 77.9688 530.784 72.3698 535.016 67.6172C539.247 62.9297 544.814 59.3815 551.715 56.9727C558.616 54.5638 566.135 53.3594 574.273 53.3594C584.885 53.3594 594.749 56.1589 603.863 61.7578L606.305 55.4102H622.516V86.5625H603.668C602.04 82.3307 599.697 79.0104 596.637 76.6016C593.577 74.1927 589.996 72.9883 585.895 72.9883C581.077 72.9883 578.668 74.5182 578.668 77.5781C578.733 79.6615 580.003 81.4518 582.477 82.9492C584.951 84.3815 588.954 86.3346 594.488 88.8086C597.939 90.2409 601.096 91.6732 603.961 93.1055C606.826 94.5378 609.397 95.9049 611.676 97.207C616.233 99.8763 620.204 103.652 623.59 108.535C626.975 113.353 628.668 119.375 628.668 126.602C628.668 134.284 626.682 140.729 622.711 145.938C618.74 151.211 613.466 155.182 606.891 157.852C600.315 160.456 593.186 161.758 585.504 161.758ZM682.77 45.1562C674.632 45.1562 667.926 43.2357 662.652 39.3945C657.379 35.5534 654.742 30.0195 654.742 22.793C654.742 15.5664 657.379 10.0977 662.652 6.38672C667.926 2.67578 674.697 0.820312 682.965 0.820312C691.233 0.820312 697.939 2.64323 703.082 6.28906C708.29 9.9349 710.895 15.4362 710.895 22.793C710.895 30.0195 708.225 35.5534 702.887 39.3945C697.613 43.2357 690.908 45.1562 682.77 45.1562ZM718.707 130.605V160H646.734V130.605H659.332V85.5859H646.734V61.5625L706.109 55.4102V130.605H718.707ZM789.02 197.988C775.087 197.988 760.406 196.003 744.977 192.031V163.809C753.635 166.478 760.797 168.496 766.461 169.863C772.125 171.296 777.691 172.012 783.16 172.012C798.915 172.012 806.793 164.199 806.793 148.574C803.212 151.764 798.818 154.466 793.609 156.68C788.401 158.893 782.509 160 775.934 160C766.493 160 758.518 157.624 752.008 152.871C745.497 148.184 740.582 141.836 737.262 133.828C734.007 125.82 732.379 116.934 732.379 107.168C732.379 97.1419 734.039 88.0924 737.359 80.0195C740.68 71.8815 745.595 65.4036 752.105 60.5859C758.681 55.7682 766.624 53.3594 775.934 53.3594C788.759 53.3594 799.046 58.8932 806.793 69.9609L813.824 55.4102H863.531V85.5859H854.156V146.816C854.156 158.079 851.454 167.52 846.051 175.137C840.712 182.754 833.16 188.451 823.395 192.227C813.629 196.068 802.171 197.988 789.02 197.988ZM794.391 133.242C797.451 133.242 800.25 132.298 802.789 130.41C805.328 128.522 806.858 126.667 807.379 124.844V89.1992C804.905 84.3815 800.315 81.9727 793.609 81.9727C788.271 81.9727 783.974 84.2839 780.719 88.9062C777.529 93.5286 775.934 99.8112 775.934 107.754C775.934 115.371 777.529 121.523 780.719 126.211C783.974 130.898 788.531 133.242 794.391 133.242ZM1008.55 93.5938V131.777H1022.12V160H961.676V93.3984C961.676 90.599 960.764 88.125 958.941 85.9766C957.184 83.8281 955.035 82.7539 952.496 82.7539C947.743 82.7539 944.749 85.1302 943.512 89.8828C942.21 94.7656 941.559 101.602 941.559 110.391V131.777H941.754V160H880.719V131.777H894.879V85.5859H880.719V59.2188L941.559 53.3594V68.0078C946.051 62.6693 951.161 58.8932 956.891 56.6797C962.62 54.4661 969.098 53.3594 976.324 53.3594C997.809 53.3594 1008.55 66.7708 1008.55 93.5938Z" fill="#111"/>
</svg>
