<?xml version="1.0" standalone="no"?><!DOCTYPE svg PUBLIC "-//W3C//DTD SVG 1.1//EN" "http://www.w3.org/Graphics/SVG/1.1/DTD/svg11.dtd"><svg t="1754041359278" class="icon" viewBox="0 0 1024 1024" version="1.1" xmlns="http://www.w3.org/2000/svg" p-id="7401" xmlns:xlink="http://www.w3.org/1999/xlink" width="200" height="200"><path d="M783.68 6.96l27.88 327.4-76.64 20.92q-69.64-285.64-236.84-271.68-146.28 6.96-153.24 139.32-6.96 125.36 181.12 174.16 334.36 104.48 327.4 348.28Q846.36 1017.04 512 1024q-118.4 0-222.88-48.76l-83.6 20.88-27.88-327.4 69.68-20.88Q323.92 975.24 512 940.4q167.2 0 167.2-139.32 13.92-132.36-229.88-202-285.6-76.64-278.64-320.44Q191.56 13.92 498.08 0q104.48 0 188.08 27.88l97.52-20.92z" fill="#666666" p-id="7402"></path></svg>