<?xml version="1.0" standalone="no"?><!DOCTYPE svg PUBLIC "-//W3C//DTD SVG 1.1//EN" "http://www.w3.org/Graphics/SVG/1.1/DTD/svg11.dtd"><svg t="1754041417974" class="icon" viewBox="0 0 1024 1024" version="1.1" xmlns="http://www.w3.org/2000/svg" p-id="11634" xmlns:xlink="http://www.w3.org/1999/xlink" width="200" height="200"><path d="M827.8 758.2c-12.562 73.26-51.78 130.04-113.38 164.22-49.82 27.66-108.16 37.96-167.46 37.96-123.72 0-251.6-44.84-315-70.76-32.76-13.344-48.44-50.68-35.1-83.4 13.282-32.72 50.54-48.56 83.4-35.1 155.12 63.28 301.2 78.78 372.2 39.38 27.66-15.344 43.34-38.84 49.38-73.96 14.5-84.62-36.4-113.5-207.4-162.76C353.2 533.2 159.96 477.4 196.22 266.4c10.968-64 47.28-118.72 102.28-154.04 91.18-58.66 230-63.74 412.8-15.376 34.18 9.062 54.54 44.1 45.5 78.26s-44.12 54.46-78.26 45.5C496 172.34 408.8 193.62 367.6 220c-25.1 16.124-40.34 39-45.32 68-14.532 84.62 36.38 113.5 207.4 162.76C670.8 491.4 864 547 827.8 758.2z" p-id="11635"></path></svg>