<?xml version="1.0" standalone="no"?><!DOCTYPE svg PUBLIC "-//W3C//DTD SVG 1.1//EN" "http://www.w3.org/Graphics/SVG/1.1/DTD/svg11.dtd"><svg t="1754041409721" class="icon" viewBox="0 0 1024 1024" version="1.1" xmlns="http://www.w3.org/2000/svg" p-id="11346" xmlns:xlink="http://www.w3.org/1999/xlink" width="200" height="200"><path d="M684.435692 748.839385c0-38.793846-13.390769-68.568615-40.192-89.324308-26.781538-20.775385-75.027692-42.673231-144.699077-65.713231-69.671385-23.04-124.849231-45.745231-165.474461-68.115692C223.300923 464.541538 167.906462 382.168615 167.906462 278.587077c0-53.838769 14.848-101.868308 44.544-144.088615 29.696-42.200615 72.349538-75.185231 127.960615-98.914462C396.041846 11.854769 458.446769 0 527.665231 0c69.691077 0 131.761231 12.898462 186.249846 38.675692 54.488615 25.796923 96.807385 62.168615 126.956308 109.174154C871.000615 194.855385 886.084923 248.241231 886.084923 308.027077H685.105231c0-45.646769-14.060308-81.132308-42.200616-106.436923-28.140308-25.324308-67.662769-38.006154-118.587077-38.006154-49.112615 0-87.315692 10.633846-114.550153 31.842462s-40.861538 49.171692-40.861539 83.849846c0 32.393846 15.950769 59.549538 47.891692 81.447384 31.940923 21.897846 78.946462 42.436923 141.016616 61.617231 114.333538 35.131077 197.632 78.710154 249.895384 130.737231 52.243692 52.007385 78.375385 116.814769 78.375385 194.382769 0 86.252308-31.940923 153.895385-95.803077 202.948923C726.419692 999.463385 640.443077 1024 532.371692 1024c-75.027692 0-143.36-14.040615-204.996923-42.102154-61.636923-28.061538-108.642462-66.500923-141.036307-115.337846C153.964308 817.723077 137.777231 761.147077 137.777231 696.812308h201.649231c0 109.981538 64.315077 164.962462 192.94523 164.962461 47.773538 0 85.070769-9.924923 111.852308-29.774769 26.820923-19.849846 40.211692-47.576615 40.211692-83.160615z" fill="#171C61" p-id="11347"></path></svg>