<?xml version="1.0" standalone="no"?><!DOCTYPE svg PUBLIC "-//W3C//DTD SVG 1.1//EN" "http://www.w3.org/Graphics/SVG/1.1/DTD/svg11.dtd"><svg t="1754041363674" class="icon" viewBox="0 0 1024 1024" version="1.1" xmlns="http://www.w3.org/2000/svg" p-id="7545" xmlns:xlink="http://www.w3.org/1999/xlink" width="200" height="200"><path d="M734.8224 257.6384a181.9648 181.9648 0 0 0-39.3216-33.1776 349.7984 349.7984 0 0 0-55.296-28.8768 388.7104 388.7104 0 0 0-66.9696-20.8896 350.208 350.208 0 0 0-75.5712-7.9872c-67.9936 0-117.76 12.6976-149.2992 38.0928-31.5392 25.3952-47.3088 60.2112-47.3088 104.448 0 23.7568 4.5056 43.4176 13.5168 58.9824 9.0112 15.5648 23.1424 28.8768 42.3936 39.936 19.2512 11.0592 43.2128 20.6848 71.8848 28.8768 28.672 8.192 62.6688 16.7936 101.9904 25.8048 45.056 9.8304 85.8112 21.0944 122.2656 33.792 36.4544 12.6976 67.584 28.4672 93.3888 47.3088s45.4656 41.7792 58.9824 68.8128c13.5168 27.0336 20.2752 60.2112 20.2752 99.5328 0 41.7792-8.192 78.0288-24.576 108.7488-16.384 30.72-38.7072 56.1152-66.9696 76.1856-28.2624 20.0704-61.6448 34.816-100.1472 44.2368a526.6432 526.6432 0 0 1-125.3376 14.1312 578.7648 578.7648 0 0 1-191.0784-31.3344A534.016 534.016 0 0 1 153.6 832.7168l52.8384-93.3888c13.1072 13.9264 30.1056 27.8528 50.9952 41.7792 20.8896 13.9264 44.6464 26.4192 71.2704 37.4784 26.624 11.0592 55.296 20.0704 86.016 27.0336 30.72 6.9632 62.8736 10.4448 96.4608 10.4448 62.2592 0 110.592-11.0592 144.9984-33.1776 34.4064-22.1184 51.6096-55.296 51.6096-99.5328 0-24.576-5.5296-45.2608-16.5888-62.0544a140.8 140.8 0 0 0-48.5376-43.6224 373.248 373.248 0 0 0-79.2576-32.5632 2243.9936 2243.9936 0 0 0-107.52-28.8768 1074.3808 1074.3808 0 0 1-116.736-34.4064 318.0544 318.0544 0 0 1-84.1728-44.2368 166.912 166.912 0 0 1-50.9952-62.6688 207.872 207.872 0 0 1-17.2032-88.4736c0-41.7792 7.7824-78.6432 23.3472-110.592 15.5648-31.9488 37.2736-58.9824 65.1264-81.1008 27.8528-22.1184 61.0304-38.7072 99.5328-49.7664A452.5056 452.5056 0 0 1 500.1216 68.4032a447.488 447.488 0 0 1 159.744 27.0336c47.5136 18.0224 89.7024 42.1888 126.5664 72.4992l-51.6096 89.7024z" fill="#50E3C2" p-id="7546"></path></svg>