<?xml version="1.0" standalone="no"?><!DOCTYPE svg PUBLIC "-//W3C//DTD SVG 1.1//EN" "http://www.w3.org/Graphics/SVG/1.1/DTD/svg11.dtd"><svg t="1754041365915" class="icon" viewBox="0 0 1024 1024" version="1.1" xmlns="http://www.w3.org/2000/svg" p-id="7689" xmlns:xlink="http://www.w3.org/1999/xlink" width="200" height="200"><path d="M180.045913 987.136v-166.733913c104.581565 43.78713 194.070261 65.669565 268.466087 65.669565 52.045913 0 93.072696-11.620174 123.058087-34.793739 29.96313-23.195826 44.966957-54.694957 44.966956-94.519652 0-31.49913-9.416348-58.10087-28.249043-79.738435-18.810435-21.659826-54.472348-47.37113-106.963478-77.133913l-65.001739-36.08487c-87.04-49.018435-148.546783-95.944348-184.409044-140.8C196.029217 378.167652 178.086957 325.765565 178.086957 265.817043c0-80.072348 29.42887-144.384 88.286608-192.957217C325.209043 24.264348 402.988522 0 499.689739 0c77.467826 0 164.730435 11.152696 261.87687 33.480348V188.994783c-99.328-37.175652-177.864348-55.785739-235.631305-55.78574-44.610783 0-80.384 9.950609-107.297391 29.874087-26.913391 19.901217-40.358957 46.057739-40.358956 78.425044 0 26.713043 9.394087 50.086957 28.204521 70.233043 18.832696 20.123826 54.272 44.855652 106.340174 74.173218l69.565218 38.733913c93.629217 52.49113 158.185739 100.841739 193.625043 145.029565 35.439304 44.187826 53.158957 98.014609 53.158957 161.458087 0 90.156522-33.480348 160.812522-100.418783 211.990261-66.938435 51.2-159.276522 76.8-276.969739 76.8-77.890783 0-168.470261-10.930087-271.738435-32.812522z" fill="#19222E" p-id="7690"></path></svg>