<?xml version="1.0" standalone="no"?><!DOCTYPE svg PUBLIC "-//W3C//DTD SVG 1.1//EN" "http://www.w3.org/Graphics/SVG/1.1/DTD/svg11.dtd"><svg t="1754041372953" class="icon" viewBox="0 0 1024 1024" version="1.1" xmlns="http://www.w3.org/2000/svg" p-id="8683" xmlns:xlink="http://www.w3.org/1999/xlink" width="200" height="200"><path d="M245.423 291.88c-3.287 107.609 74.975 189.158 234.783 244.567 127.175 42.417 190.762 94.617 190.762 156.523-9.783 117.392-71.765 177.769-185.871 180.979-48.914 0-99.509-14.675-151.631-44.023-26.138-16.278-42.417-24.457-48.912-24.457-32.635 3.287-48.914 22.852-48.914 58.697 12.992 61.981 96.144 94.617 249.458 97.825 185.871-3.21 286.908-94.539 303.263-273.915 0-110.819-83.153-193.971-249.458-249.458-117.392-42.34-176.087-92.935-176.087-151.63 3.21-78.262 50.517-120.602 141.847-127.175 42.341 0 83.153 13.070 122.284 39.13 22.775 9.783 40.735 14.675 53.805 14.675 29.347 0 45.626-16.278 48.912-48.912-19.565-58.697-92.935-92.935-220.109-102.718-156.523 13.070-244.567 89.725-264.131 229.892z" fill="" p-id="8684"></path></svg>