<?xml version="1.0" standalone="no"?><!DOCTYPE svg PUBLIC "-//W3C//DTD SVG 1.1//EN" "http://www.w3.org/Graphics/SVG/1.1/DTD/svg11.dtd"><svg t="1754041376838" class="icon" viewBox="0 0 1024 1024" version="1.1" xmlns="http://www.w3.org/2000/svg" p-id="8827" xmlns:xlink="http://www.w3.org/1999/xlink" width="200" height="200"><path d="M675.717735 731.475644c0 35.908838-9.251711 68.173682-27.739784 96.78737-18.49626 28.619828-45.558615 51.02614-81.1973 67.224054-35.636638 16.198937-77.894068 24.298406-126.755915 24.298406-58.58735 0-106.911962-11.066033-144.978952-33.207309-26.999934-15.925714-48.937572-37.187971-65.807798-63.782675-16.876366-26.588565-25.310456-52.443419-25.310456-77.55126 0-14.579043 5.062296-27.063379 15.185864-37.459147 10.124592-10.389628 23.014156-15.591093 38.674834-15.591093 12.68695 0 23.418362 4.049223 32.19526 12.148691 8.769734 8.099469 16.262382 20.116153 22.475897 36.042891 7.55507 18.901489 15.724123 34.694173 24.499997 47.382147 8.770757 12.692067 21.122063 23.152303 37.054941 31.384801 15.926738 8.238638 36.852326 12.351306 62.770626 12.351306 35.636638 0 64.593134-8.302083 86.866417-24.90625 22.273283-16.604166 33.408901-37.319977 33.408901-62.162782 0-19.703761-6.010901-35.700083-18.020422-47.988967-12.015661-12.281721-27.538193-21.665439-46.571688-28.145014-19.034519-6.479575-44.484144-13.364379-76.336596-20.654412-42.660612-9.985422-78.361719-21.665439-107.114576-35.028794-28.752858-13.364379-51.570539-31.587416-68.439742-54.67218-16.875343-23.082718-25.310456-51.765991-25.310456-86.055958 0-32.662911 8.909927-61.687968 26.727735-87.068008 17.818831-25.3739 43.596937-44.88221 77.348646-58.518788 33.745569-13.629415 73.432453-20.450774 119.061676-20.450774 36.447097 0 67.964928 4.524037 94.560656 13.56597 26.588565 9.048073 48.660256 21.058618 66.213028 36.041868 17.545608 14.984273 30.372751 30.714536 38.47222 47.178509 8.099469 16.471137 12.148691 32.537044 12.148691 48.191582 0 14.312984-5.061272 27.202549-15.186887 38.674834-10.124592 11.478426-22.747073 17.210987-37.864376 17.210987-13.768585 0-24.234961-3.442402-31.384801-10.327206-7.157004-6.884804-14.920828-18.154475-23.286356-33.815153-10.800997-22.406313-23.760147-39.889499-38.876426-52.443419-15.123442-12.55392-39.421848-18.830881-72.895217-18.830881-31.05018 0-56.088436 6.821359-75.121931 20.450774-19.033495 13.636578-28.550243 30.03813-28.550243 49.203632 0 11.883655 3.239787 22.140253 9.719362 30.777981 6.479575 8.642844 15.388479 16.065907 26.727735 22.273283 11.339256 6.213515 22.811542 11.073196 34.421974 14.579043 11.605316 3.511987 30.777981 8.643867 57.505715 15.388479 33.473369 7.833409 63.783699 16.47216 90.915639 25.918299 27.132964 9.453303 50.215682 20.925588 69.2502 34.422997 19.033495 13.502525 33.877575 30.575366 44.546565 51.228755C670.38324 676.196643 675.717735 701.508121 675.717735 731.475644z" p-id="8828"></path></svg>