<?xml version="1.0" standalone="no"?><!DOCTYPE svg PUBLIC "-//W3C//DTD SVG 1.1//EN" "http://www.w3.org/Graphics/SVG/1.1/DTD/svg11.dtd"><svg t="1754041381996" class="icon" viewBox="0 0 1085 1024" version="1.1" xmlns="http://www.w3.org/2000/svg" p-id="8971" xmlns:xlink="http://www.w3.org/1999/xlink" width="211.9140625" height="200"><path d="M870.449152 1023.995904H-0.002048v-194.543616h731.136l22.528-4.58752c15.878144-10.020864 29.464576-17.639424 39.292928-33.660928a121.915392 121.915392 0 0 0 13.312-30.263296 122.927104 122.927104 0 0 0 4.739072-33.90464 122.447872 122.447872 0 0 0-19.2512-66.064384 123.72992 123.72992 0 0 0-16.9984-21.0944 122.984448 122.984448 0 0 0-21.0944-16.80384l-22.528-6.627328H213.92384c-56.997888-0.4096-110.592-38.283264-150.915072-95.50848C22.390784 463.296512 0.022528 386.6624 0.022528 305.154048S22.390784 147.009536 63.008768 89.382912C103.124992 32.458752 156.434432 0.718848 213.127168 0.014336H1085.446144v194.56H354.310144l-22.528 6.627328c-7.620608 4.816896-14.716928 8.423424-21.0944 14.764032a123.670528 123.670528 0 0 0-16.9984 21.080064 122.537984 122.537984 0 0 0-19.2512 66.064384 123.662336 123.662336 0 0 0 4.73088 33.908736 122.730496 122.730496 0 0 0 13.330432 30.255104A124.086272 124.086272 0 0 0 331.782144 407.078912l22.528 4.58752 517.844992 0.012288c56.715264 0.6144 110.057472 34.34496 150.202368 91.224064 39.860224 56.475648 62.2592 131.559424 63.0784 211.427328-0.464896 49.50016-6.223872 88.080384-17.117184 124.3136a331.28448 331.28448 0 0 1-46.532608 96.9728c-40.536064 56.983552-94.281728 88.379392-151.33696 88.379392z" p-id="8972"></path></svg>