<?xml version="1.0" standalone="no"?><!DOCTYPE svg PUBLIC "-//W3C//DTD SVG 1.1//EN" "http://www.w3.org/Graphics/SVG/1.1/DTD/svg11.dtd"><svg t="1754041399930" class="icon" viewBox="0 0 1024 1024" version="1.1" xmlns="http://www.w3.org/2000/svg" p-id="10226" xmlns:xlink="http://www.w3.org/1999/xlink" width="200" height="200"><path d="M827.733333 232.516267c-4.3008 68.266667-36.2496 104.516267-95.982933 108.817066-12.834133 0-38.434133-8.533333-76.8-25.6-59.733333-29.9008-104.516267-44.782933-134.417067-44.782933-55.5008 0-83.217067 21.2992-83.217066 63.965867 0 29.9008 46.967467 61.917867 140.834133 96.0512 149.2992 29.832533 238.933333 119.466667 268.765867 268.765866-12.765867 170.666667-123.6992 258.116267-332.8 262.417067-196.266667-12.834133-305.015467-68.266667-326.382934-166.434133 8.533333-68.266667 40.5504-104.516267 95.982934-108.817067 29.9008 0 68.266667 12.834133 115.234133 38.434133 51.2 29.9008 95.982933 44.782933 134.417067 44.782934 63.965867 0 93.866667-23.483733 89.565866-70.382934 0-29.9008-46.8992-61.8496-140.834133-95.982933C332.868267 578.1504 243.234133 490.7008 213.4016 341.333333 226.167467 166.365867 332.8 74.683733 533.367467 66.1504c187.733333 12.765867 285.832533 68.266667 294.365866 166.365867z" fill="#222222" p-id="10227"></path></svg>