<?xml version="1.0" standalone="no"?><!DOCTYPE svg PUBLIC "-//W3C//DTD SVG 1.1//EN" "http://www.w3.org/Graphics/SVG/1.1/DTD/svg11.dtd"><svg t="1754041402689" class="icon" viewBox="0 0 1024 1024" version="1.1" xmlns="http://www.w3.org/2000/svg" p-id="10370" xmlns:xlink="http://www.w3.org/1999/xlink" width="200" height="200"><path d="M471.04 204.8h81.92a102.4 102.4 0 0 1 102.4 102.4v102.4h-81.14176v-90.99264a30.72 30.72 0 0 0-30.33088-30.72l-62.21824-0.77824A30.72 30.72 0 0 0 450.56 317.82912v62.2592A61.44 61.44 0 0 0 473.62048 428.032l143.29856 114.64704A102.4 102.4 0 0 1 655.36 622.65344V716.8a102.4 102.4 0 0 1-102.4 102.4H471.4496a102.4 102.4 0 0 1-102.4-102.4v-102.4H450.56v92.16A30.72 30.72 0 0 0 481.28 737.28h62.21824a30.72 30.72 0 0 0 30.72-30.72v-62.5664a61.44 61.44 0 0 0-23.1424-48.04608l-143.85152-114.64704A102.4 102.4 0 0 1 368.64 401.22368V307.2a102.4 102.4 0 0 1 102.4-102.4z" fill="#000000" p-id="10371"></path></svg>