<?xml version="1.0" standalone="no"?><!DOCTYPE svg PUBLIC "-//W3C//DTD SVG 1.1//EN" "http://www.w3.org/Graphics/SVG/1.1/DTD/svg11.dtd"><svg t="1754041774693" class="icon" viewBox="0 0 1024 1024" version="1.1" xmlns="http://www.w3.org/2000/svg" p-id="38263" xmlns:xlink="http://www.w3.org/1999/xlink" width="200" height="200"><path d="M653.8 210H372.3L145.7 375.4l58.5 91.5 69.3-47.4c15.7-10.8 37.3-0.7 39 18.3l9.8 106.2c1.4 14.7 1.3 29.4-0.3 44.1l-23.8 227.1h428.5L703 588c-1.5-14.6-1.6-29.4-0.3-44.1l9.7-105.5c1.8-19 23.3-29.1 39-18.3l68.3 46.7 58.6-91.5L653.8 210zM266.7 484.7l-55.4 37.9c-11.6 8-27.6 4.7-35.2-7.2L91 382.4c-7.1-11.1-4.4-25.9 6.3-33.7l252.1-184c4.3-3.1 9.4-4.8 14.7-4.8H662c5.3 0 10.5 1.7 14.8 4.9l250 184c10.6 7.8 13.3 22.5 6.2 33.6l-85.1 133c-7.6 11.9-23.5 15.1-35.2 7.2l-54.4-37.2-5.8 63.1c-1.1 11.4-1 22.9 0.2 34.3l26.7 254.7c1.5 14.8-10 27.6-24.9 27.6h-484c-14.8 0-26.4-12.8-24.9-27.6l26.7-254.7c1.2-11.4 1.3-22.9 0.2-34.3l-5.8-63.8z" fill="#979797" p-id="38264"></path><path d="M339 183c0-13.8 11.2-25 25-25h298c13.8 0 25 11.2 25 25 0 96.1-77.9 174-174 174s-174-77.9-174-174z m174 124c59.9 0 109.9-42.5 121.5-99h-243c11.6 56.5 61.6 99 121.5 99z" fill="#979797" p-id="38265"></path></svg>